<svg xmlns="http://www.w3.org/2000/svg" viewBox="0 0 750 700">
  <defs>
    <style>
      .cls-1, .cls-2, .cls-3 {
        fill: none;
      }

      .cls-2, .cls-3 {
        stroke: #7a7a7a;
        stroke-linecap: round;
        stroke-linejoin: round;
        stroke-width: 1.8px;
      }

      .cls-2 {
        stroke-dasharray: 1 3;
      }

      .cls-4 {
        font-size: 25px;
        pointer-events: none;
      }
    </style>
    <filter id="hilight">
      <feComponentTransfer>
        <feFuncR type="linear" slope="1" intercept="0.1"></feFuncR>
        <feFuncG type="linear" slope="1" intercept="0.1"></feFuncG>
        <feFuncB type="linear" slope="1" intercept="0.1"></feFuncB>
      </feComponentTransfer>
    </filter>
    <filter id="shade">
      <feComponentTransfer>
        <feFuncR type="linear" slope="0.8" ></feFuncR>
        <feFuncG type="linear" slope="0.8" ></feFuncG>
        <feFuncB type="linear" slope="0.8" ></feFuncB>
      </feComponentTransfer>
    </filter>
  </defs>
  <g id="r-calf">
    <path #rCalf class="cls-1 vein-part" (click)="select('r-calf')" (mouseenter)="onHover('r-calf')" (mouseleave)="onLeave('r-calf')" d="M324.22,503.68l.5.85c-.44,1.22-1.09,3.12-1.72,5.47-1.19,4.43-2.65,11.63-2,30,.21,6,.36,10.12,1,16a198.91,198.91,0,0,0,5.1,27.86c.21.77,1.08,3.9,2,8.15.42,1.94.68,3.32.8,3.94a81.19,81.19,0,0,1,1.73,13.8,60.88,60.88,0,0,1-1.73,19c-3,11.07-11.45,25.34-13.8,29.33-.69,1.18-2.28,3.83-1.72,6.9.5,2.82,2.45,4,5.17,6.9,6.17,6.63,4.45,9.55,8.62,12.08s10,1.9,13.8,0c4.25-2.1,6.13-5.65,8.63-10.36A46.18,46.18,0,0,0,355,661c2.51-12.15-1.17-14.29,2-23,1.74-4.79,3.65-6.33,3.95-11a25.91,25.91,0,0,0-1.73-10.35c-.76-1.82-.94-1.63-1.48-3-1-2.65-.95-4.69-.74-9.62.43-10,.66-12.92,1.81-17,.17-.6.32-1.09.41-1.41,0,0,3.26-10.74,6.91-29.32,4.9-25,2.52-35,1.72-37.95A54.8,54.8,0,0,0,361,502.8c.09-.28.19-.58.28-.89C355,504,352,505,341,505S333.43,506.36,324.22,503.68Z"/>
  </g>
  <g id="l-calf">
    <path #lCalf class="cls-1 vein-part" (click)="select('l-calf')" (mouseenter)="onHover('l-calf')" (mouseleave)="onLeave('l-calf')" d="M424,505c-3.71,0-13.24-3.69-17.17-5.58.06.19.12.4.17.58l.5,1.14c0,.06-5.46,14.81-6.87,20.64-2.18,9-.07,18.56,3.45,34.5,1.8,8.18,2.45,8.92,6.89,27.6h0c1.14,4.33,1.4,8,1,20.12a21.12,21.12,0,0,1-1.25,7.86c-.58,1.47-.81,1.38-1.5,3.06-.62,1.52-2.11,5.16-1.72,8.63.35,3.22,2.2,5.17,3.44,6.9,3.4,4.72,2.32,7.78,5.18,32.77.47,4.12.73,6.06,1.73,8.63,1.06,2.77,3.58,9.39,10.34,12.08,1,.38,7.07,2.8,12.08,0,4.05-2.27,2.81-5.39,8.62-10.36,2.55-2.17,4.2-2.78,5.18-5.17.84-2.06.66-4.17,0-6.9a39.65,39.65,0,0,0-5.18-12.07,77.19,77.19,0,0,1-8.62-20.71c-1.4-6-1.36-10.92-1.3-17.72a74.84,74.84,0,0,1,1.3-15c1-5,2-6.37,3.45-12.07,2.11-8.45,3.12-15,3.45-17.25a170,170,0,0,0,1.72-29.33c-.23-8.35-1-15.1-1.72-20.7-.59-4.91-1.22-9-1.73-12.07l.06-.12C436.78,506.66,427.79,505,424,505Z"/>
  </g>
  <g id="r-thigh">
    <path #rThigh class="cls-1 vein-part" (click)="select('r-thigh')" (mouseenter)="onHover('r-thigh')" (mouseleave)="onLeave('r-thigh')" d="M362.19,353.47c-.08.21-.14.39-.19.53-1,3-2,27-3,33s-6,20-6,20-3,4-4,4-2-1-3-2V359c0-3.22,1.25-11,2.94-18l0-.1c-9.28-10.1-14.34-15.19-24.68-23.83h0c-1.79,8.3-2.73,16.5-4.28,30a354.56,354.56,0,0,0-2,53c.27,6.58.95,18.12,1.38,37,0,2,0,.46.17,8.87.54,27.22.77,34.28,1.45,43.12.18,2.33.49,6.18,1,11,.74,1.23.43,2.36,2.22,3.68C327,505,332,506,342,505a55.57,55.57,0,0,0,19.23-3.09c.88-2.75,2-6.58,3.17-11.19,3.37-13.47,3.93-22,5.18-31.05,2.51-18.25,5.08-18.52,8.62-37.95A241.29,241.29,0,0,0,382,385.46h0C381,380.91,370,364,362.19,353.47Z"/>
  </g>
  <g id="l-thigh">
    <path #lThigh class="cls-1 vein-part" (click)="select('l-thigh')" (mouseenter)="onHover('l-thigh')" (mouseleave)="onLeave('l-thigh')" d="M446.28,502.92a2.36,2.36,0,0,1-1.48,1.23c-8.81,2.44-16.95.85-20.8.85s-14-4-17.21-5.7A107.29,107.29,0,0,1,404,487c-.62-3.75-.84-6.3-1.65-15.25-.87-9.61-1.3-14.41-1.35-14.75a165.45,165.45,0,0,0-5-22c-1.9-6.85-3.18-10.54-4-13.28-2.34-7.74-4.58-19.49-3.45-36.22l-.47,0C390.17,379.93,399,363,405.84,352c1.38,4.47,2.7,8.63,3.16,10,1,3,3,29,4,32s6,16,7,18,4-4,4-4-1-36-1-45c0-7-2.39-19.31-4.4-26.4l-.6.4.56-.53c.22-.21.45-.43.69-.64,7.94-7.42,25.55-16.72,25.55-16.72.71,3.24,1.5,6.94,2.4,11.19a315.8,315.8,0,0,1,5.18,34.5c2.25,21.27,1.5,39.48,0,75.9-.65,15.55-1.57,29.95-3.46,46.58-.62,5.5-1.22,10.11-1.67,13.41a2.2,2.2,0,0,1-.23.74Z"/>
  </g>
  <g id="r-forearm">
    <path #rFa class="cls-1 vein-part" (click)="select('r-forearm')" (mouseenter)="onHover('r-forearm')" (mouseleave)="onLeave('r-forearm')" d="M310.93,271.94A26.83,26.83,0,0,1,305,275c-3,1-23,1-25,0a12.38,12.38,0,0,1-3-2,129.6,129.6,0,0,0-6,22c-2,11.8-.68,16.41-1.47,42.2-.35,11.29-.66,14.94-1.53,18.8-.71,3.13-3.07,8.22-4,11a17.59,17.59,0,0,0-1,4c-1.68,7.81-3,16-3,19,0,5,1.13,6.13,2,7s2,1,5.8,2.3a40.21,40.21,0,0,0,6.9,1.73c8.12,1.25,12.17,1.93,15.52,0,4-2.29,4.78-4,6.78-13,2.64-11.88,2-13,1-16-1.7-5.11-5.24-6.94-7-14a22.52,22.52,0,0,1,0-10c3-18,6-22,6-22,.95-1.92,2.63-5.86,4.75-9.54,2.95-5.15,3.93-6.44,5.25-9.46a43.87,43.87,0,0,0,3-11c.88-5.08.92-8.95,1-16C311,276.68,311,273.91,310.93,271.94Z"/>
  </g>
  <g id="l-forearm">
    <path #lFa class="cls-1 vein-part" (click)="select('l-forearm')" (mouseenter)="onHover('l-forearm')" (mouseleave)="onLeave('l-forearm')" d="M508,381c-1-6-1.55-9.51-3-17-.59-3.07-2.45-4.4-3-8-2.35-38.87-3.14-53.84-3.05-55a1.15,1.15,0,0,0,0-.17c0-.48.14-1.83.18-3.56A53.17,53.17,0,0,0,499,291a31.2,31.2,0,0,0-2-8,43.11,43.11,0,0,0-4.64-9.15S490,275,488,276s-20,0-23,0a10.84,10.84,0,0,1-5.76-2.15A84.8,84.8,0,0,0,462,303c1,3.66,2.14,6.67,3,9,5.87,15.82,9.15,16.83,11.53,26.92,1.65,7,1.47,4,1.47,11.08,0,5,0,5,.25,9.63.14,2.61-1.42,4.37-1.72,5.17a40.86,40.86,0,0,1-2.5,5.68c-1.48,2.69-2.27,3.16-3,4.52-2.39,4.24-.34,9.72,2,16,2.14,5.73,3.21,8.59,5,10,3.51,2.76,5.83.46,24.4-1.7,3.19-.37,5-2.06,5.6-3.3C509,394,509,387,508,381Z"/>
  </g>
  <g id="r-femoral">
    <path #rFemoral class="cls-2 vein-part" (click)="select('r-femoral')" (mouseenter)="onHover('r-femoral')" (mouseleave)="onLeave('r-femoral')" d="M346,409V359c0-5,3-21,6-28s12-21,13-22,5-2,6,0,0,20,0,22-8,20-9,23-2,27-3,33-6,20-6,20-3,4-4,4S347,410,346,409Z"/>
  </g>
  <g id="l-femoral">
    <path #lFemoral class="cls-2 vein-part" (click)="select('l-femoral')" (mouseenter)="onHover('l-femoral')" (mouseleave)="onLeave('l-femoral')" d="M399,329c-1-5-1-16,0-19s3-2,6,0,10,18,12,22,6,22,6,31,1,45,1,45-3,6-4,4-6-15-7-18-3-29-4-32-6-19-7-23S399,329,399,329Z"/>
  </g>
  <g id="r-upper-arm">
    <path #rUa class="cls-1 vein-part" (click)="select('r-upper-arm')" (mouseenter)="onHover('r-upper-arm')" (mouseleave)="onLeave('r-upper-arm')" d="M322,157c-.72-2.15-4.53-10-6.62-14.22-8.71,1.78-11.27,2.11-14.8,4.67-6.86,5-9.37,12.47-10.36,15.52-3.15,9.82.62,12.61-1.72,25.88-1.14,6.46-2.18,6.63-5.17,17.25a233.28,233.28,0,0,0-5.18,24.15,199.55,199.55,0,0,0-1.9,42A17.41,17.41,0,0,0,280,275c2,1,22,1,25,0a26.83,26.83,0,0,0,5.93-3.06,2.81,2.81,0,0,0,0-.29c1.1-3.27,2.14-6.82,3.08-10.65a201.28,201.28,0,0,0,5-30,47.58,47.58,0,0,1,2-11,46.07,46.07,0,0,1,2-5.28c0,.33.06.69.09,1.05.1-.25.91-19.77.91-26.77S323,160,322,157Z"/>
  </g>
  <g id="l-upper-arm">
    <path #lUa class="cls-1 vein-part" (click)="select('l-upper-arm')" (mouseenter)="onHover('l-upper-arm')" (mouseleave)="onLeave('l-upper-arm')" d="M488.6,223.35c-3.41-16-5.11-23.94-6.9-29.32a41.12,41.12,0,0,1-1.73-6.9c-.94-6-.09-9.38,0-13.8.09-3.81.25-11-3.44-17.25-4.85-8.25-14-11.08-17.25-12.08a30.4,30.4,0,0,0-5.17-1.08C454.1,143,452,153,451,161s-2,39-2,39v15.1a207.31,207.31,0,0,1,3.38,23.78c.55,6.85.52,10.81,1.72,17.25a84.5,84.5,0,0,0,5.09,17A14.11,14.11,0,0,0,465,276c3,0,21,1,23,0l4.06-3C492.53,245.31,490.08,230.27,488.6,223.35Z"/>
  </g>
  <g id="r-subcravian">
    <path #rSjv class="cls-2 vein-part" (click)="select('r-subcravian')" (mouseenter)="onHover('r-subcravian')" (mouseleave)="onLeave('r-subcravian')" d="M342,146a59.94,59.94,0,0,0,17-3c9-3,15-8,19-5s3,8,0,11-25,3-29,2-14-2-7-4"/>
  </g>
  <g id="l-subcravian">
    <path #lSjv class="cls-2 vein-part" (click)="select('l-subcravian')" (mouseenter)="onHover('l-subcravian')" (mouseleave)="onLeave('l-subcravian')" d="M393,148s-6-2-2-10,11,4,20,5,19,3,19,3,5,2-1,4S403,153,393,148Z"/>
  </g>
  <g id="r-jugular">
    <path #rIjv class="cls-1 vein-part" (click)="select('r-jugular')" (mouseenter)="onHover('r-jugular')" (mouseleave)="onLeave('r-jugular')" d="M375,118c-2-4-9-7.72-9-7.72q.5,7.86,1,15.72c-8.26,4.49-20.23,8.74-26,10.67,14.23,1.61,23.21.2,29-3.67C376,129,377,122,375,118Z"/>
  </g>
  <g id="l-jugular">
    <path #lIjv class="cls-1 vein-part" (click)="select('l-jugular')" (mouseenter)="onHover('l-jugular')" (mouseleave)="onLeave('l-jugular')" d="M429.65,136.84c-1.69-.54-3.53-1.13-5.65-1.84-5.08-2.19-12-5-21-9l1.07-16.49c-1.65.9-10.87,6.25-10.07,13.49.94,8.5,11.72,17.89,35.67,13.84Z"/>
  </g>
  <g id="Outline">
    <path class="cls-2" d="M361.23,501.91C355,504,352,505,341,505s-7.57,1.36-16.78-1.32"/>
    <path class="cls-2" d="M277,273a12.38,12.38,0,0,0,3,2c2,1,22,1,25,0a26.83,26.83,0,0,0,5.93-3.06"/>
    <path class="cls-2" d="M316.05,142.64S321,154,322,157s2,25,2,32-.81,26.55-.91,26.77"/>
    <path class="cls-2" d="M454.11,142.91S452,153,451,161s-2,39-2,39l.13,15.77"/>
    <path class="cls-2" d="M459.24,273.85A10.85,10.85,0,0,0,465,276c3,0,21,1,23,0s4.36-2.15,4.36-2.15"/>
    <path class="cls-2" d="M444.8,319.11s-18.67,9.87-26.24,17.38"/>
    <path class="cls-2" d="M405.84,352c-6.84,11-15.67,27.95-17.76,33.48"/>
    <path class="cls-2" d="M362.19,353.47C370,364,381,380.93,382,385.46"/>
    <path class="cls-2" d="M324.28,317c10.72,9,13.64,12.71,24.68,23.84"/>
    <path class="cls-2" d="M406.79,499.3C410,501,420,505,424,505s12.62,1.71,21.81-1.14"/>
    <path class="cls-2" d="M366,110.28s7,3.72,9,7.72,1,11-5,15-13.76,5.49-28.88,3.75"/>
    <path class="cls-2" d="M404.33,109.38S393.12,115.05,394,123c1,9,9.54,16.54,35,14"/>
    <path class="cls-3" d="M508,381c-1-6-1.55-9.51-3-17-.59-3.07-2.45-4.4-3-8-2.35-38.87-3.14-53.84-3.05-55a1.15,1.15,0,0,0,0-.17c0-.48.14-1.83.18-3.56A53.17,53.17,0,0,0,499,291a31.2,31.2,0,0,0-2-8,42.82,42.82,0,0,0-4.95-9.62c.5-27.94-2-43.08-3.45-50-3.41-16-5.11-23.94-6.9-29.32a41.12,41.12,0,0,1-1.73-6.9c-.94-6-.09-9.38,0-13.8.09-3.81.25-11-3.44-17.25-4.85-8.25-14-11.08-17.25-12.08-5-1.54-9.48-1.28-13.28-2-9-3-13-4-22-7-5.08-2.19-12-5-21-9l1.08-16.5c1.5-.64,2.67-2.11,5.17-5.17A17.81,17.81,0,0,0,412.7,88.8c1,1,2.38,2.11,3.45,1.72s1-2.09,1.73-6.89c.62-4,.57-8.18,1.72-12.08.14-.46.4-1.32,0-1.72-.73-.73-3.16.5-5.18,1.72A31.53,31.53,0,0,0,419.6,61.2a29.82,29.82,0,0,0,0-17.25c-.63-2-3.61-11.58-12.07-15.53-2.52-1.17-3.37-.84-10.36-1.72-16.34-2.05-16.54-4.43-22.42-3.45-7.78,1.3-13.12,6.41-17.25,10.35-3.37,3.22-6.78,6.48-8.62,12.07a26.14,26.14,0,0,0,0,15.53,29,29,0,0,0,6.9,12.07c-4.7-4-6.28-3.86-6.9-3.44-.82.54-.56,2,1.72,12.07,1.22,5.42,1.93,8.43,3.45,8.62s3.09-2,3.45-1.72c.12.11,0,.44-.1.67a25.6,25.6,0,0,0,.1,8,17.16,17.16,0,0,0,3.45,8.63,15,15,0,0,0,5.05,4q.5,8,1,16a130.79,130.79,0,0,1-21.58,9.38c-13.43,4.42-20.3,5.36-27.59,6.9-10.73,2.25-13.4,2.38-17.25,5.17-6.86,5-9.37,12.47-10.36,15.52-3.15,9.82.62,12.61-1.72,25.88-1.14,6.46-2.18,6.63-5.17,17.25a233.28,233.28,0,0,0-5.18,24.15,201.7,201.7,0,0,0-1.73,44.85A105.83,105.83,0,0,0,271,295c-2,11.8-.68,16.41-1.47,42.2-.35,11.29-.66,14.94-1.53,18.8-.71,3.13-3.07,8.22-4,11a17.59,17.59,0,0,0-1,4c-1.68,7.81-3,16-3,19,0,5,1.13,6.13,2,7s2,1,5.8,2.3a40.21,40.21,0,0,0,6.9,1.73c8.12,1.25,12.17,1.93,15.52,0,4-2.29,4.78-4,6.78-13,2.64-11.88,2-13,1-16-1.7-5.11-5.24-6.94-7-14a22.52,22.52,0,0,1,0-10c3-18,6-22,6-22,.95-1.92,2.63-5.86,4.75-9.54,2.95-5.15,3.93-6.44,5.25-9.46a43.87,43.87,0,0,0,3-11c.88-5.08.92-8.95,1-16,0-3.48,0-6.36-.08-8.35,1.1-3.27,2.14-6.82,3.08-10.65a201.28,201.28,0,0,0,5-30,47.58,47.58,0,0,1,2-11,46.07,46.07,0,0,1,2-5.28c.3,3.46.83,8.89,1.72,15.53,2,14.56,3.74,20.65,5.18,31.05h0s1.33,9,2.1,17.7c.78,8.82-3.57,22-6,31-3,11.21-4,19.81-6,37a354.56,354.56,0,0,0-2,53c.27,6.58.95,18.12,1.38,37,0,2,0,.46.17,8.87.54,27.22.77,34.28,1.45,43.12.18,2.33.49,6.18,1,11l2.22,3.68.5.85c-.44,1.22-1.09,3.12-1.72,5.47-1.19,4.43-2.65,11.63-2,30,.21,6,.36,10.12,1,16a198.91,198.91,0,0,0,5.1,27.86c.21.77,1.08,3.9,2,8.15.42,1.94.68,3.32.8,3.94a81.19,81.19,0,0,1,1.73,13.8,60.88,60.88,0,0,1-1.73,19c-3,11.07-11.45,25.34-13.8,29.33-.69,1.18-2.28,3.83-1.72,6.9.5,2.82,2.45,4,5.17,6.9,6.17,6.63,4.45,9.55,8.62,12.08s10,1.9,13.8,0c4.25-2.1,6.13-5.65,8.63-10.36A46.18,46.18,0,0,0,355,661c2.51-12.15-1.17-14.29,2-23,1.74-4.79,3.65-6.33,3.95-11a25.91,25.91,0,0,0-1.73-10.35c-.76-1.82-.94-1.63-1.48-3-1-2.65-.95-4.69-.74-9.62.43-10,.66-12.92,1.81-17,.17-.6.32-1.09.41-1.41,0,0,3.26-10.74,6.91-29.32,4.9-25,2.52-35,1.72-37.95A54.8,54.8,0,0,0,361,502.8c.09-.28.19-.58.28-.89.88-2.75,2-6.58,3.17-11.19,3.37-13.47,3.93-22,5.18-31.05,2.51-18.25,5.08-18.52,8.62-37.95A242.24,242.24,0,0,0,382,385l6.55.5c-1.13,16.73,1.11,28.48,3.45,36.22.82,2.74,2.1,6.43,4,13.28a165.45,165.45,0,0,1,5,22c.05.34.48,5.14,1.35,14.75.81,8.95,1,11.5,1.65,15.25a105.61,105.61,0,0,0,3,13l.5,1.14c0,.06-5.46,14.81-6.87,20.64-2.18,9-.07,18.56,3.45,34.5,1.8,8.18,2.45,8.92,6.89,27.6h0c1.14,4.33,1.4,8,1,20.12a21.12,21.12,0,0,1-1.25,7.86c-.58,1.47-.81,1.38-1.5,3.06-.62,1.52-2.11,5.16-1.72,8.63.35,3.22,2.2,5.17,3.44,6.9,3.4,4.72,2.32,7.78,5.18,32.77.47,4.12.73,6.06,1.73,8.63,1.06,2.77,3.58,9.39,10.34,12.08,1,.38,7.07,2.8,12.08,0,4.05-2.27,2.81-5.39,8.62-10.36,2.55-2.17,4.2-2.78,5.18-5.17.84-2.06.66-4.17,0-6.9a39.65,39.65,0,0,0-5.18-12.07,77.19,77.19,0,0,1-8.62-20.71c-1.4-6-1.36-10.92-1.3-17.72a74.84,74.84,0,0,1,1.3-15c1-5,2-6.37,3.45-12.07,2.11-8.45,3.12-15,3.45-17.25a170,170,0,0,0,1.72-29.33c-.23-8.35-1-15.1-1.72-20.7-.59-4.91-1.22-9-1.73-12.07.58-1.16,1.16-2.3,1.73-3.45.46-3.33,1.08-8.09,1.72-13.8,1.89-16.63,2.81-31,3.46-46.58,1.5-36.42,2.25-54.63,0-75.9a315.8,315.8,0,0,0-5.18-34.5c-5.08-24-6.9-31.05-6.9-31.05-1.83-7.07-3.64-13.41-3.45-22.42.08-3.54.63-7,1.73-13.8,1.12-7,2.37-13.35,5.17-25.88,1.31-5.85,3-13.47,5.17-22.43a207,207,0,0,1,3.46,24.16c.55,6.85.52,10.81,1.72,17.25a85.19,85.19,0,0,0,5.18,17.25A84.76,84.76,0,0,0,462,303c1,3.66,2.14,6.67,3,9,5.87,15.82,8.67,17,11.53,26.92,1.33,4.67,3.47,14.08,1.72,20.71-.67,2.52-1.3,5.64-2.25,7.37-1.47,2.69-4.24,6.64-5,8-2.39,4.24-.34,9.72,2,16,2.14,5.73,3.21,8.59,5,10,3.51,2.76,5.83.46,24.4-1.7,3.19-.37,5-2.06,5.6-3.3C509,394,509,387,508,381Z"/>
  </g>
  <g id="TextBoxes">
    <g id="l-jugular-2" data-name="l-jugular">
      <line class="cls-3" x1="503" y1="56" x2="404" y2="127"/>
      <rect class="cls-3 vein-part text-box" (click)="select('l-jugular')" (mouseenter)="onHover('l-jugular')" (mouseleave)="onLeave('l-jugular')" x="500" y="15" width="114" height="47" rx="15.18"/>
      <text class="cls-4" transform="translate(517.67 49.33)">{{ shuntName['l-jugular'] }}</text>
    </g>
    <g id="l-subcravian-2" data-name="l-subcravian">
      <line class="cls-3" x1="522" y1="127" x2="423" y2="145"/>
      <rect class="cls-3 vein-part text-box" (click)="select('l-subcravian')" (mouseenter)="onHover('l-subcravian')" (mouseleave)="onLeave('l-subcravian')" x="520" y="87" width="114" height="47" rx="15.18"/>
      <text class="cls-4" transform="translate(532.32 121.13)">{{ shuntName['l-subcravian'] }}</text>
    </g>
    <g id="l-upper-arm-2" data-name="l-upper-arm">
      <line class="cls-3" x1="521" y1="206" x2="488" y2="219"/>
      <rect class="cls-3 vein-part text-box" (click)="select('l-upper-arm')" (mouseenter)="onHover('l-upper-arm')" (mouseleave)="onLeave('l-upper-arm')" x="521" y="182" width="195" height="47" rx="15.18"/>
      <text class="cls-4" transform="translate(531.93 214.13)">{{ shuntName['l-upper-arm'] }}</text>
    </g>
    <g id="l-forearm-2" data-name="l-forearm">
      <line class="cls-3" x1="536" y1="301" x2="499" y2="296"/>
      <rect class="cls-3 vein-part text-box" (click)="select('l-forearm')" (mouseenter)="onHover('l-forearm')" (mouseleave)="onLeave('l-forearm')" x="536" y="277" width="170" height="47" rx="15.18"/>
      <text class="cls-4" transform="translate(548.93 309.13)">{{ shuntName['l-forearm'] }}</text>
    </g>
    <g id="l-femoral-2" data-name="l-femoral">
      <line class="cls-3" x1="520" y1="384" x2="423" y2="363"/>
      <rect class="cls-3 vein-part text-box" (click)="select('l-femoral')" (mouseenter)="onHover('l-femoral')" (mouseleave)="onLeave('l-femoral')" x="520" y="360" width="216" height="47" rx="15.18"/>
      <text class="cls-4" transform="translate(530.59 394.13)">{{ shuntName['l-femoral'] }}</text>
    </g>
    <g id="l-thigh-2" data-name="l-thigh">
      <line class="cls-3" x1="518" y1="471" x2="452" y2="442"/>
      <rect class="cls-3 vein-part text-box" (click)="select('l-thigh')" (mouseenter)="onHover('l-thigh')" (mouseleave)="onLeave('l-thigh')" x="518" y="451" width="137" height="47" rx="15.18"/>
      <text class="cls-4" transform="translate(530.59 484.13)">{{ shuntName['l-thigh'] }}</text>
    </g>
    <g id="l-calf-2" data-name="l-calf">
      <line class="cls-3" x1="515" y1="588" x2="449" y2="537"/>
      <rect class="cls-3 vein-part text-box" (click)="select('l-calf')" (mouseenter)="onHover('l-calf')" (mouseleave)="onLeave('l-calf')" x="515" y="565" width="129" height="47" rx="15.18"/>
      <text class="cls-4" transform="translate(532.59 598.13)">{{ shuntName['l-calf'] }}</text>
    </g>
    <g id="r-jugular-2" data-name="r-jugular">
      <line class="cls-3" x1="264" y1="53" x2="366" y2="127"/>
      <rect class="cls-3 vein-part text-box" (click)="select('r-jugular')" (mouseenter)="onHover('r-jugular')" (mouseleave)="onLeave('r-jugular')" x="140" y="15" width="125" height="47" rx="15.18"/>
      <text class="cls-4" transform="translate(153.67 49.33)">{{ shuntName['r-jugular'] }}</text>
    </g>
    <g id="r-subcravian-2" data-name="r-subcravian">
      <line class="cls-3 vein-part" x1="239" y1="125" x2="347" y2="145"/>
      <rect class="cls-3 vein-part text-box" (click)="select('r-subcravian')" (mouseenter)="onHover('r-subcravian')" (mouseleave)="onLeave('r-subcravian')" x="106" y="87" width="134" height="47" rx="15.18"/>
      <text class="cls-4" transform="translate(121.32 121.13)">{{ shuntName['r-subcravian'] }}</text>
    </g>
    <g id="r-upper-arm-2" data-name="r-upper-arm">
      <line class="cls-3" x1="249" y1="205" x2="280" y2="219"/>
      <rect class="cls-3 vein-part text-box" (click)="select('r-upper-arm')" (mouseenter)="onHover('r-upper-arm')" (mouseleave)="onLeave('r-upper-arm')" x="37" y="182" width="212" height="47" rx="15.18"/>
      <text class="cls-4" transform="translate(48.93 214.13)">{{ shuntName['r-upper-arm'] }}</text>
    </g>
    <g id="r-forearm-2" data-name="r-forearm">
      <line class="cls-3" x1="234" y1="301" x2="271" y2="296"/>
      <rect class="cls-3 vein-part text-box" (click)="select('r-forearm')" (mouseenter)="onHover('r-forearm')" (mouseleave)="onLeave('r-forearm')" x="48" y="277" width="185" height="47" rx="15.18"/>
      <text class="cls-4" transform="translate(62.93 309.13)">{{ shuntName['r-forearm'] }}</text>
    </g>
    <g id="r-femoral-2" data-name="r-femoral">
      <line class="cls-3" x1="250" y1="384" x2="346" y2="364"/>
      <rect class="cls-3 vein-part text-box" (click)="select('r-femoral')" (mouseenter)="onHover('r-femoral')" (mouseleave)="onLeave('r-femoral')" x="13" y="360" width="237" height="47" rx="15.18"/>
      <text class="cls-4" transform="translate(25 394.13)">{{ shuntName['r-femoral'] }}</text>
    </g>
    <g id="r-thigh-2" data-name="r-thigh">
      <line class="cls-3" x1="252" y1="471" x2="320" y2="441"/>
      <rect class="cls-3 vein-part text-box" (click)="select('r-thigh')" (mouseenter)="onHover('r-thigh')" (mouseleave)="onLeave('r-thigh')" x="93" y="451" width="158" height="47" rx="15.18"/>
      <text class="cls-4" transform="translate(106.59 484.13)">{{ shuntName['r-thigh'] }}</text>
    </g>
    <g id="r-calf-2" data-name="r-calf">
      <line class="cls-3" x1="254" y1="589" x2="321" y2="537"/>
      <rect class="cls-3 vein-part text-box" (click)="select('r-calf')" (mouseenter)="onHover('r-calf')" (mouseleave)="onLeave('r-calf')" x="115" y="565" width="139" height="47" rx="15.18"/>
      <text class="cls-4" transform="translate(128.59 598.13)">{{ shuntName['r-calf'] }}</text>
    </g>
  </g>
</svg>
