<?xml version="1.0" encoding="utf-8"?>
<!-- Generator: Adobe Illustrator 25.1.0, SVG Export Plug-In . SVG Version: 6.00 Build 0)  -->
<svg version="1.1" id="Layer_1" xmlns="http://www.w3.org/2000/svg" xmlns:xlink="http://www.w3.org/1999/xlink" x="0px" y="0px"
	 viewBox="0 0 236.1 256" style="enable-background:new 0 0 236.1 256;" xml:space="preserve">
<g>
	<path d="M205,33.8c-2.5-3.7-2.5-3.7-25.5-3.7h-17.2v-1.7c0-4.2-0.8-7.6-2.1-9.6l-1.4-2.1c-0.7-1-1.8-1.6-3.1-1.6H81.4
		c-1.2,0-2.4,0.6-3.1,1.6l-1.4,2c-1.4,2-2.2,5.4-2.2,9.6v1.7H57.6c-22.9,0-22.9,0-25.4,3.6c-2,2.8-2.2,3.1-2.2,101.7
		c0,98.6,0.2,98.9,2.1,101.6l1.4,2.1c0.7,1,1.8,1.6,3.1,1.6h163.9c1.2,0,2.4-0.6,3.1-1.6l1.4-2c2-2.8,2.2-3.1,2.2-101.7
		C207.1,36.9,206.9,36.6,205,33.8z M86.6,28.7h64.3v13.6H86.6V28.7z M189.4,214.5c0,4.6-3.7,8.4-8.3,8.4H58.7
		c-4.6,0-8.3-3.8-8.3-8.4V67.8c0-4.6,3.7-8.4,8.3-8.4h122.4c4.6,0,8.3,3.8,8.3,8.4V214.5z"/>
	<path d="M58,213.8h123.2V67.7H58V213.8z M92.1,101.4c0.4-0.7,3.2-0.8,6.5-0.8h6c1.6,0,2.9-1.3,2.9-2.9v-5.9c0-4.1,0.5-7.5,0.8-7.9
		c0.6-0.7,4-0.8,11.3-0.8c5.1,0,10.3,0,11.8,0.9c0.7,0.4,0.8,4.3,0.8,7.7v6c0,1.6,1.3,2.9,2.9,2.9h5.9c3.4,0,7,0.1,7.4,0.7
		c0.9,1.4,0.9,6.5,0.9,11.4c0,5.1,0,10.3-0.9,11.8c-0.4,0.7-4,0.8-7.3,0.8h-6c-1.6,0-2.9,1.3-2.9,2.9v5.9c0,3.4-0.1,7.1-0.8,7.5
		c-1.4,0.9-6.5,0.9-11.4,0.9c-5.1,0-10.3,0-11.8-0.9c-0.7-0.4-0.8-4-0.8-7.3v-6c0-1.6-1.3-2.9-2.9-2.9h-5.9c-3.4,0-6.3-0.1-6.6-0.7
		c-0.9-1.4-0.9-6.5-0.9-11.4C91.2,108.1,91.2,102.9,92.1,101.4z M80.4,165.8c0.2-2.6,2.2-4.4,3.7-5.5c3.6-2.8,1.8-3.1,32.8-3.3
		c31.2-0.1,30.7,0,34.3,2.8c1.5,1.1,3.5,2.9,3.7,5.5c0.2,2.6-1.4,4.7-2.7,6.1l-1.6,1.7c-1,1.1-2.5,1.7-4.1,1.7l-57.8,0.5
		c-1.6,0-3.1-0.6-4.1-1.7l-1.6-1.8C81.8,170.4,80.2,168.3,80.4,165.8z M67.5,194c0.2-2.6,2.2-4.4,3.7-5.5c3.6-2.8,3.6-2.8,47-2.8
		c43.4,0,43.4,0,47,2.8c1.5,1.1,3.5,2.9,3.7,5.5c0.2,2.6-1.4,4.7-2.7,6.1l-1.6,1.7c-1,1.1-2.5,1.7-4.1,1.7H75.8
		c-1.6,0-3.1-0.6-4.1-1.7l-1.6-1.8C68.9,198.7,67.2,196.5,67.5,194z"/>
</g>
</svg>
