<?xml version="1.0" encoding="utf-8"?>
<!-- Generator: Adobe Illustrator 24.2.3, SVG Export Plug-In . SVG Version: 6.00 Build 0)  -->
<svg version="1.1" id="Layer_1" xmlns="http://www.w3.org/2000/svg" xmlns:xlink="http://www.w3.org/1999/xlink" x="0px" y="0px"
	 viewBox="0 0 1000 1000" style="enable-background:new 0 0 1000 1000;" xml:space="preserve">
<path d="M854.3,457.9c-4.5-3.9-10.1-7.3-15.7-9.2c-0.5-0.2-0.9-0.4-1.4-0.5c-3.7-1.3-7.4-1.4-10.6-0.6c-3.7,0.7-7,2.7-9.5,6.2
	c-0.1,0.2-0.3,0.4-0.4,0.6c0,0,0,0,0,0c-1.4,1.9-2.4,4.2-3,6.7c0,0,0,0,0,0c0,0,0,0,0,0c-1,3.8-1.4,7.8-1,11.7
	c0.1,1.2,0.3,2.3,0.5,3.5c1.1,10.2,4.7,20.8,10,30.6c0.2,0.4,0.4,0.7,0.6,1c0.3,0.5,0.6,1.1,0.9,1.6c1.4,2.3,2.8,4.6,4.4,6.9
	c0.2,0.3,0.5,0.7,0.7,1c0.4,0.5,0.8,1.1,1.2,1.6c3.4,4.5,7.1,8.7,11.1,12.3c1.4,1.3,2.7,2.5,4.2,3.8c2.1,1.8,4.5,3.2,7,4.5
	c2,1.2,4,2.2,6,3.1c5.6,2.9,12.7,3.8,18.3,1c6.3-3.2,7.3-12.8,7.5-19c0.5-10.5-2.9-24.1-9.1-37.2C871.1,476.4,864,466.5,854.3,457.9
	z"/>
<path d="M599.2,423.7c-17.4-45.1-55-100.1-87.2-132.8c-11.8-12-17.8-17.5-23-21.5c-3.8-2.9-9.1-3.3-13.3-0.9
	c-9.5,5.4-20.6,13.7-32.5,28c-50.3,60.2-100.1,140.8-82.6,207.7C404.9,672.1,665.3,591.7,599.2,423.7z"/>
<path d="M977,510c-4.8-90-92.5-172.3-185.8-166.7c-42.3,9.8-80.6,31.9-121.1,48c-7.7,3-17,7.3-24.9,9.8l6.5,21
	c22,87.3-21.3,143.6-41,163.8c-33.8,34.6-79.4,54.5-125.2,54.5c-10.7,0-21.5-1.1-32.1-3.2c-44.1-6.6-83.6-29.8-111.2-65.2
	c-25.8-33.2-45.3-96.5-30.7-163.4l0.1-0.3l8-22.1c-3.8-1.8-10.1-4.4-14.4-6.3c-7.3-3.4-15.2-6.9-23.2-10.5
	c-20.7-9.1-42.1-18.1-57.1-23C117.1,324.4,24,469.3,34.4,566.5c-1.3,60.8,56.2,85.3,103,107.8C250.2,728.8,375,756.1,500,757.5
	c151.1-2,304.5-36.5,430.7-121.1C978,604.7,982.2,567.7,977,510z M924.5,582.3c-11.9,18-23.1,26.9-62.5,25
	c-67.2-21.1-118.2-111.1-107.3-175.4l4-16.1c46.5-60.3,122.5-13.7,153.6,42.1c16.8,30.2,20.6,50.4,21.3,64.2
	C934.5,538.8,937.4,562.9,924.5,582.3z"/>
</svg>
