<?xml version="1.0" encoding="utf-8"?>
<!-- Generator: Adobe Illustrator 24.2.3, SVG Export Plug-In . SVG Version: 6.00 Build 0)  -->
<svg version="1.1" id="Layer_1" xmlns="http://www.w3.org/2000/svg" xmlns:xlink="http://www.w3.org/1999/xlink" x="0px" y="0px"
	 viewBox="0 0 1000 1000" style="enable-background:new 0 0 1000 1000;" xml:space="preserve">
<style type="text/css">
	.st0{fill:none;}
</style>
<path class="st0" d="M599,680c-0.4,0.1-0.8,0.1-1.1,0.2C598.2,680.1,598.6,680.1,599,680z"/>
<path class="st0" d="M610.5,678.4c-1.4,0.2-2.9,0.4-4.3,0.6C607.6,678.8,609,678.6,610.5,678.4z"/>
<path class="st0" d="M571.9,425.7c-23.9-46.4-56.2-83.5-89.6-124.1c-43.6,50.5-112.9,116.9-94.7,186.4
	C422.1,619.1,628.9,555,571.9,425.7z"/>
<path class="st0" d="M672.1,667c-19.2,4.3-38.6,7.9-58.1,10.9C633.4,675,652.8,671.4,672.1,667z"/>
<path class="st0" d="M674.1,463.1c5.3-1.8,10.7-3.6,16.2-5.4C684.9,459.5,679.5,461.3,674.1,463.1c-7.3,2.5-14.8,5-22.3,7.5
	c-1.9,39.6-19.1,78.5-48.2,108.4c-31.9,32.7-74.9,51.5-118.1,51.5c-10.2,0-20.4-1-30.3-3.1c-41.7-6.2-79-28-105-61.5
	c-23.5-30.2-36-67.5-35.8-105.9c-38.9-14.6-76.9-31.9-112.4-48.5c-0.2-0.1-0.3-0.1-0.5-0.1c-0.1,0-0.2,0-0.4,0.1l-0.4,0.1l-0.4,0.1
	c-30.8,8.1-63.1,38-82.1,76.2c-15.6,31.3-19.9,62.6-12.2,87c106.5,73.6,239.5,112.4,385.1,112.4c33.9,0,70.1-2.3,106.6-7
	c0.4,0,0.8-0.1,1.1-0.2c2.4-0.3,4.8-0.6,7.2-1c1.4-0.2,2.9-0.4,4.3-0.6c1.2-0.2,2.3-0.3,3.5-0.5c19.5-2.9,38.9-6.6,58.1-10.9
	c45.4-10.3,89.6-24.7,129.5-43.7c-0.2-0.2-0.4-0.3-0.5-0.5c-53.9-44.6-84.9-101.3-91.3-171.6c0-0.3-0.1-0.6-0.1-0.9
	C704.2,452.1,679.5,461.3,674.1,463.1z"/>
<path d="M614,677.9c-1.2,0.2-2.3,0.4-3.5,0.5C611.6,678.3,612.8,678.1,614,677.9z"/>
<path d="M606.2,679c-2.4,0.3-4.8,0.7-7.2,1C601.4,679.7,603.8,679.4,606.2,679z"/>
<path d="M597.8,680.2c-36.6,4.8-72.7,7-106.6,7C526.8,687.2,562.4,684.8,597.8,680.2z"/>
<path d="M709.8,451.2c6.4,70.2,37.4,127,91.3,171.6"/>
<path d="M637.5,402.5c-0.2,0.1-0.4,0.1-0.6,0.2l0,0C637.1,402.6,637.3,402.5,637.5,402.5z"/>
<path d="M854.3,457.9c-4.5-3.9-10.1-7.3-15.7-9.2c-0.5-0.2-0.9-0.4-1.4-0.5c-3.7-1.3-7.4-1.4-10.6-0.6c-3.7,0.7-7,2.7-9.5,6.2
	c-0.1,0.2-0.3,0.4-0.4,0.6c0,0,0,0,0,0c-1.4,1.9-2.4,4.2-3,6.7c0,0,0,0,0,0c0,0,0,0,0,0c-1,3.8-1.4,7.8-1,11.7
	c0.1,1.2,0.3,2.3,0.5,3.5c1.1,10.2,4.7,20.8,10,30.6c0.2,0.4,0.4,0.7,0.6,1c0.3,0.5,0.6,1.1,0.9,1.6c1.4,2.3,2.8,4.6,4.4,6.9
	c0.2,0.3,0.5,0.7,0.7,1c0.4,0.5,0.8,1.1,1.2,1.6c3.4,4.5,7.1,8.7,11.1,12.3c1.4,1.3,2.7,2.5,4.2,3.8c2.1,1.8,4.5,3.2,7,4.5
	c2,1.2,4,2.2,6,3.1c5.6,2.9,12.7,3.8,18.3,1c6.3-3.2,7.3-12.8,7.5-19c0.5-10.5-2.9-24.1-9.1-37.2C871.1,476.4,864,466.5,854.3,457.9
	z"/>
<path d="M977,510c-4.8-90-92.5-172.3-185.8-166.7c-53.5,12.4-100.5,44.5-153.7,59.2c-0.2,0.1-0.4,0.1-0.6,0.2l0,0l-8.6-18.4
	l-0.2,0.1c-29.8-53.5-47.2-75.8-80.8-111.8c-0.4-0.5-1.8-2.1-3-3.5c-22.4-26.5-39.6-43.5-56.2-46.3c-1.6-0.3-3.2-0.4-4.8-0.4
	c-19.3,0-40.7,18.7-69,49c-1,1.1-1.9,2-2.6,2.8c-10,10.5-61,73.9-84.6,116c-11.8-5.6-28.1-13.2-44.9-20.6
	c-20.7-9.1-42.1-18.1-57.1-23C117.1,324.4,24,469.3,34.4,566.5c-1.3,60.8,56.2,85.3,103,107.8C250.2,728.8,375,756.1,500,757.5
	c151.1-2,304.5-36.5,430.7-121.1C978,604.7,982.2,567.7,977,510z M482.3,301.6c33.4,40.6,65.7,77.7,89.6,124.1
	c57,129.3-149.8,193.3-184.4,62.3C369.3,418.6,438.7,352.2,482.3,301.6z M672.1,667c-19.3,4.4-38.7,8-58.1,10.9
	c-1.2,0.2-2.3,0.4-3.5,0.5c-1.4,0.2-2.9,0.4-4.3,0.6c-2.4,0.3-4.8,0.7-7.2,1c-0.4,0.1-0.8,0.1-1.1,0.2c-35.4,4.6-71.1,7-106.6,7
	c-145.6,0-278.6-38.9-385.1-112.4c-7.8-24.4-3.5-55.7,12.2-87c19-38.2,51.3-68.1,82.1-76.2l0.4-0.1l0.4-0.1c0.1,0,0.2-0.1,0.4-0.1
	c0.2,0,0.3,0,0.5,0.1c35.5,16.6,73.5,33.9,112.4,48.5c-0.3,38.4,12.2,75.7,35.8,105.9c26,33.5,63.3,55.3,105,61.5
	c10,2,20.2,3.1,30.3,3.1c43.1,0,86.2-18.8,118.1-51.5c29.1-29.8,46.3-68.8,48.2-108.4c7.5-2.5,15-5,22.3-7.5
	c5.3-1.8,30.1-11,35.5-12.8c0,0.3,0.1,0.6,0.1,0.9c7.7,69.5,37.7,125,91.3,171.6c0.2,0.2,0.4,0.3,0.5,0.5
	C761.7,642.3,717.4,656.7,672.1,667z M920,574.1c-20.4,25.9-42.3,22.6-68.2,22.6c-50.9-30.6-95.4-101.5-92.6-151.4l-0.5-6.6
	c46.5-60.3,118-29.5,149.1,26.3c16.8,30.2,17.2,37.7,20.8,58c2,11-1,28.1-2.3,33.8C925.1,562.4,923,568.3,920,574.1z"/>
</svg>
