<svg id="Capa_1" enable-background="new 0 0 512 512" height="512" viewBox="0 0 512 512" width="512" xmlns="http://www.w3.org/2000/svg"><g><path d="m172.588 360.624c17.547 17.545 46.093 17.545 63.64 0l37.766-37.766c-21.462-1.108-42.621-9.516-58.978-25.875-16.359-16.359-24.767-37.516-25.875-58.978l-37.766 37.766c-17.547 17.547-17.547 46.093 0 63.64z"/><path d="m130.163 403.05 21.213 21.215 21.212-21.215-63.64-63.638-21.213 21.212 21.213 21.213-108.948 108.95 21.213 21.213z"/><path d="m321.081 275.771c23.432-23.432 23.43-61.423 0-84.853-23.432-23.432-61.421-23.432-84.853 0-23.432 23.43-23.432 61.421 0 84.853 23.431 23.431 61.421 23.431 84.853 0zm-42.427-63.64 21.215 21.213-21.215 21.215-21.213-21.215z"/><path d="m490.787 169.706 21.213-21.215-148.493-148.491-21.213 21.213c-11.715 11.715-11.715 30.71 0 42.426l106.066 106.067c11.717 11.715 30.71 11.715 42.427 0z"/><path d="m401.283 386.488 30.515-30.515c20.808-20.808 16.298-55.492-8.67-70.404l-56.494-33.893c-3.433 16.608-11.479 32.446-24.34 45.308s-28.7 20.907-45.308 24.34l33.893 56.494c14.836 24.884 49.53 29.544 70.404 8.67z"/><path d="m215.016 169.706c12.861-12.863 28.7-20.907 45.306-24.34l-33.891-56.494c-14.907-25.073-49.673-29.401-70.404-8.67l-30.515 30.515c-20.892 20.891-16.19 55.583 8.67 70.404l56.494 33.891c3.433-16.606 11.477-32.445 24.34-45.306z"/><path d="m368.169 228.684 48.371-48.373-84.853-84.853-48.371 48.373c21.462 1.108 42.621 9.516 58.978 25.875 16.359 16.357 24.767 37.516 25.875 58.978z"/></g></svg>