<svg id="Capa_1" enable-background="new 0 0 512.02 512.02" height="512" viewBox="0 0 512.02 512.02" width="512" xmlns="http://www.w3.org/2000/svg"><g><path d="m130.182 403.052 21.213 21.213 44.232-44.231c16.373 7.838 37.103 5.323 51.227-8.801l50.055-50.055 33.987 56.645c15.113 25.186 49.767 29.307 70.407 8.667l30.514-30.514c20.69-20.69 16.463-55.329-8.667-70.407l-56.645-33.987 62.486-62.486c16.7 7.956 37.349 5.079 51.209-8.782l31.819-31.82-148.492-148.493-31.819 31.82c-14.122 14.121-16.641 34.85-8.802 51.228l-62.467 62.467-33.987-56.645c-15.054-25.089-49.685-29.389-70.407-8.667l-30.514 30.514c-20.69 20.69-16.463 55.329 8.667 70.407l56.645 33.987-50.055 50.055c-14.12 14.118-16.642 34.848-8.802 51.228l-44.232 44.232 21.213 21.213-108.967 108.964 21.213 21.214zm116.672-137.885c-17.542-17.542-17.545-46.084-.009-63.63l.019-.019c17.546-17.534 46.085-17.535 63.631.009 17.54 17.541 17.544 46.078.014 63.625l-.029.029c-17.548 17.53-46.084 17.526-63.626-.014zm159.1-95.46-53.063 53.063c-2.196-15.544-9.254-30.526-21.183-42.456-11.93-11.93-26.912-18.988-42.456-21.184l53.062-53.062zm1.762 141.586c8.363 5.018 9.796 16.561 2.889 23.469l-30.514 30.514c-6.898 6.898-18.443 5.486-23.47-2.889l-37.845-63.076c31.715-31.715 23.612-23.612 25.864-25.864zm-54.795-258.259 10.606-10.606 106.066 106.066-10.606 10.606c-5.861 5.862-15.351 5.863-21.214 0l-84.853-84.853c-5.848-5.848-5.848-15.364.001-21.213zm-203.287 102.366c-8.363-5.018-9.796-16.561-2.889-23.469l30.514-30.514c6.897-6.894 18.443-5.488 23.47 2.889l37.845 63.075-12.927 12.927c-.001.001-.003.003-.005.005s-.003.003-.005.005l-12.927 12.927zm12.368 130.98 42.456-42.456c2.196 15.544 9.254 30.526 21.183 42.456 11.929 11.929 26.912 18.988 42.456 21.184l-42.456 42.455c-5.862 5.863-15.35 5.863-21.213 0l-42.427-42.427c-5.862-5.862-5.862-15.35.001-21.212zm-10.606 53.032 21.214 21.213-21.214 21.213-21.214-21.213z"/><path d="m263.675 218.346h30v30h-30z" transform="matrix(.707 -.707 .707 .707 -83.379 265.394)"/></g></svg>