<?xml version="1.0" encoding="utf-8"?>
<!-- Generator: Adobe Illustrator 24.2.3, SVG Export Plug-In . SVG Version: 6.00 Build 0)  -->
<svg version="1.1" id="Layer_1" xmlns="http://www.w3.org/2000/svg" xmlns:xlink="http://www.w3.org/1999/xlink" x="0px" y="0px"
	 viewBox="0 0 384 512" style="enable-background:new 0 0 384 512;" xml:space="preserve">
<path d="M288.5,35.7h-193c-7.6,0-13.8,6-13.8,13.4v26.8c0,7.4,6.2,13.4,13.8,13.4h193c7.6,0,13.8-6,13.8-13.4V49.1
	C302.3,41.7,296.1,35.7,288.5,35.7z"/>
<polygon points="109.5,116.2 109.5,128.4 109.5,167.2 109.5,192.7 109.5,243.7 109.5,269.2 109.5,320.2 109.5,345.7 109.5,363.6 
	109.5,396.7 274.5,396.7 274.5,116.2 "/>
<path d="M288.5,423.7h-193c-7.6,0-13.8,6.1-13.8,13.5v27c0,7.4,6.2,13.5,13.8,13.5h193c7.6,0,13.8-6.1,13.8-13.5v-27
	C302.3,429.8,296.1,423.7,288.5,423.7z"/>
<path d="M217.7,19h-51.3c-2.3,0-4.2-1.9-4.2-4.2V4.2c0-2.3,1.9-4.2,4.2-4.2h51.3c2.3,0,4.2,1.9,4.2,4.2v10.6
	C221.9,17.1,220,19,217.7,19z"/>
<path d="M217.7,512h-51.3c-2.3,0-4.2-1.9-4.2-4.2v-10.6c0-2.3,1.9-4.2,4.2-4.2h51.3c2.3,0,4.2,1.9,4.2,4.2v10.6
	C221.9,510.1,220,512,217.7,512z"/>
</svg>
