<svg id="fill" xmlns="http://www.w3.org/2000/svg" viewBox="0 0 177.51 161.43"><path d="M168.64,102.86c0-2.28.11-2.61.11-4.94-9.87,0-27.75,0-31.93-.08-2.64-.06-3-.3-3.2,1a3.11,3.11,0,0,1-.79,1.69c-1.23,1.85-3.78,1.91-7.14,1.91-7.87,0-9.06-.42-10-2.34s-.81-2.12-3.78-2.1c-14.32.1-29.73,0-44,0-5.89,0-4.71-.61-6.22,2.13-.93,1.7-3,1.88-5.32,1.94s-4.46.12-6.76,0c-3.77-.12-5.68-.86-6.37-2.75a4.66,4.66,0,0,1-.27-1.13s-25.74.16-33.74.15c0,2.12-.09,2.23-.08,4.3,0,5.38.07,10.94-.11,16.37a23.1,23.1,0,0,0,6.12,17.07c4.24,4.39,10.23,6.7,17.33,6.7h112.7c7,0,13.24-2.38,17.47-6.7s6.25-10.08,6.1-16.89C168.59,113.79,168.61,108.23,168.64,102.86Z"/><path d="M52.6,76c-1.59-.12-3.08-.2-3,2.19.09,5,.06,10,0,15.07,0,2.95,2.11,2,3.62,2.1s3.14.28,3-2.15,0-5,0-7.53,0-5,0-7.54C56.27,75.27,54.15,76.14,52.6,76Z"/><path d="M175.25,74.46c0-.76-.07-1.53-.1-2.3a47.06,47.06,0,0,0-1.22-10.41c-3.45-12.64-13.9-20.28-28-20.44-3.33,0-6.66-.05-10-.05-4.05,0-8.16,0-12.22.08h-.46a2.09,2.09,0,0,1,0-.24c.14-2.42.1-4.85.07-7.2,0-.7,0-1.41,0-2.12-.08-9.51-5.94-15.71-15.3-16.16-2.46-.12-5.13-.18-8.41-.18-1.84,0-3.69,0-5.53,0l-2.65,0H83.4c-5,0-10.22,0-15.52.4-7.77.54-13.13,6.43-13.33,14.65-.09,3.52-.15,6.69,0,9.88a4.05,4.05,0,0,1,0,.83,4.82,4.82,0,0,1-1.08.1H48.83c-7.46,0-15.18,0-22.76.61C14.14,42.9,3.23,54.48,2.71,66.76c-.19,4.46-.14,9-.1,13.35,0,1.71,0,3.41,0,5.11,0,3.48,2,5.64,5.18,5.64.2,0,24.52-.15,28.19-.22,6-.11,6.81.76,6.85-4.2,0-2.19,0-5.47.29-10.43.17-3.34,1.83-5.7,5.19-6.2a32,32,0,0,1,8.57-.17c3.55.44,5.42,2.84,5.73,6.47.09,1,.17,8.74.18,10.44,0,3.33.22,3.94,2.66,3.9,14.32-.22,28.64-.19,43-.07,5.32.05,6-.3,6.05-4.17,0-1.55-.12-3.61.09-9.36.09-2.39.29-4.75,2.43-5.94a15.28,15.28,0,0,1,13.55-.48c3.62,1.47,3.41,5.13,3.35,8.43,0,.54.15,8,.16,8.56.06,1.79,0,3.46,1.48,3.46l33.11,0v0h1.48c3-.14,5-2.28,5.06-5.69l0-.6C175.34,81.26,175.44,77.85,175.25,74.46ZM109.64,41.28l-40.75,0V34.08c0-3.54,1.69-3.41,5.2-3.46,4.22-.05,4.49,0,8.34,0l6.54,0c6.2,0,9.26,0,15.46,0,3.86,0,5,.58,5.21,3.07.17,1.75,0-.21,0,1.58h0Z"/><path d="M126.61,95.37a4.17,4.17,0,0,0,.87-.37c0-5,0-9.91,0-14.85,0-4.26,0-4.16-4.21-4.18h0c-1.83,0-2.27.68-2.23,2.38.1,4,0,7.93,0,11.89C121.07,95.77,121.07,95.77,126.61,95.37Z"/></svg>