<?xml version="1.0" encoding="utf-8"?>
<!-- Generator: Adobe Illustrator 24.2.3, SVG Export Plug-In . SVG Version: 6.00 Build 0)  -->
<svg version="1.1" id="Layer_1" xmlns="http://www.w3.org/2000/svg" xmlns:xlink="http://www.w3.org/1999/xlink" x="0px" y="0px"
	 viewBox="0 0 448 512" style="enable-background:new 0 0 448 512;" xml:space="preserve">
<path d="M70.9,497c-20.5,0-38.7-10.7-48.7-28.7c-10.1-18.1-9.6-39.3,1.3-56.8L143,219.3V49h-23c-5,0-9-4-9-9V24c0-5,4-9,9-9h208
	c5,0,9,4,9,9v16c0,5-4,9-9,9h-23v170.3l119.5,192.1c10.9,17.5,11.4,38.7,1.4,56.8c-10,18-28.2,28.7-48.7,28.7H70.9z M336.9,335
	l-62.7-100.9l-0.2-0.3c-2-3-3.1-6.4-3.1-9.9V49h-94v175c0,3.6-1,6.9-3,9.7l-0.3,0.4L110.9,335H336.9z"/>
</svg>
