<?xml version="1.0" encoding="utf-8"?>
<!-- Generator: Adobe Illustrator 24.2.3, SVG Export Plug-In . SVG Version: 6.00 Build 0)  -->
<svg version="1.1" id="Layer_1" xmlns="http://www.w3.org/2000/svg" xmlns:xlink="http://www.w3.org/1999/xlink" x="0px" y="0px"
	 viewBox="0 0 448 512" style="enable-background:new 0 0 448 512;" xml:space="preserve">
<path d="M70.9,497c-20.5,0-38.7-10.7-48.7-28.7c-10.1-18.1-9.6-39.3,1.3-56.8L143,219.3V49h-23c-5,0-9-4-9-9V24c0-5,4-9,9-9h208
	c5,0,9,4,9,9v16c0,5-4,9-9,9h-23v170.3l119.5,192.1c10.9,17.5,11.4,38.7,1.4,56.8c-10,18-28.2,28.7-48.7,28.7H70.9z M91.8,366.5
	c-9,14.5-15.6,24.8-20.8,33.2c-4.4,6.9-8.1,12.9-11.9,18.9c-6.2,10-6.5,22.1-0.8,32.4c5.7,10.3,16.2,16.4,27.9,16.4
	c16.8,0,39.6,0,65.6,0c34.5,0,74.6,0,113.9,0c34.5,0,68.5,0,97.6,0c11.5,0,21.7-6,27.4-16.1c5.6-10.1,5.3-21.9-0.7-31.7
	c-4.5-7.2-9.1-14.5-13.7-21.9l-1.2-2c-3.6-5.8-6.3-9.8-9.2-14c-2.7-3.9-5.4-8-9.2-13.9l-0.1-0.2l-5.8-8.1H96.3L91.8,366.5z
	 M176.9,224c0,3.6-1,6.9-3,9.7l-0.3,0.4l-62.2,100.1h225.3l-14.4-23c-16.6-26.5-32.7-52.2-47.9-76.7l-0.2-0.3l-0.2-0.3
	c-2-2.9-3.1-6.3-3.1-9.8V49h-94V224z"/>
</svg>
