<?xml version="1.0" encoding="utf-8"?>
<!-- Generator: Adobe Illustrator 24.2.3, SVG Export Plug-In . SVG Version: 6.00 Build 0)  -->
<svg version="1.1" id="Layer_1" xmlns="http://www.w3.org/2000/svg" xmlns:xlink="http://www.w3.org/1999/xlink" x="0px" y="0px"
	 viewBox="0 0 1024 1024" style="enable-background:new 0 0 1024 1024;" xml:space="preserve">
<g>
	<path d="M780.1,689.1c-24.2,0-27.3-13-27.3-24.3c0-0.9,0-7.9,0-19.5c-0.6-372.4-0.4-501.1-0.2-539l-60.1-0.1c-2.5,4-5.8,7.3-9.6,10
		c-5.6,3.8-12,5.7-19.1,5.7c-3.1,0-5.7-0.4-7-0.6l-0.7-0.1c-4.8-0.8-17.6-3.1-24.3-14.6c-7-11.9-2.2-26.2,1.7-32.8
		c11.8-19.6,40-21.8,51.6-21.8h197c26,0.1,46.7,12.4,51.6,30.7c0,0.1,0.1,0.3,0.1,0.4c1,4.2,3.4,18.8-6.5,29.9
		c-6,6.7-14.9,10.2-25.6,10.2c0,0,0,0,0,0c-0.8,0-1.4,0-1.9,0c-3.6-0.1-12-0.3-20.1-6.5c-3.7-2.7-6.8-6.3-9-10.4l-61.7-0.1
		c0,0-0.6,559.6-0.6,559.6c-0.1,4.7-0.2,11.9-5.9,17.2C796.8,688.4,788,689.1,780.1,689.1z"/>
	<path d="M584.8,952.7c0,5.1,4.2,9.3,9.3,9.3h62.1c5.1,0,9.3-4.2,9.3-9.3v-17.9c0-5.1-4.2-9.3-9.3-9.3h-62.1c-5.2,0-9.3,4.2-9.3,9.3
		V952.7z"/>
	<path d="M316.3,962H377c5.5,0,10-4.5,10-10v-16.5c0-5.5-4.5-10-10-10h-60.7c-5.5,0-10,4.5-10,10V952
		C306.3,957.5,310.8,962,316.3,962z"/>
	<g>
		<path d="M390.4,620.5c4.2,1.8,8.9,2.8,13.7,2.8c7.4-0.1,14-2.2,19.7-6.1c5.5-3.7,10.1-9.2,12.8-15.5c1.8-4.3,2.8-8.9,2.8-13.7
			c-0.1-7.4-2.2-14-6.1-19.7c-3.7-5.5-9.2-10.1-15.5-12.8c-4.2-1.8-8.9-2.8-13.7-2.8c-7.4,0.1-14,2.2-19.7,6.1
			c-5.5,3.7-10.1,9.2-12.8,15.5c-1.8,4.2-2.8,8.9-2.8,13.7c0.1,7.4,2.2,14,6.1,19.7C378.6,613.3,384,617.9,390.4,620.5z"/>
		<path d="M483.2,497.9c-106.5-1.8-186.4-36.7-226.3-57.5l0,263.6l0.1,169.8c-0.1,17.7,14.2,32.1,31.9,32.2h394.2
			c17.7,0,32.1-14.4,32.1-32.1L715,446.4C674.5,466.2,592,499.7,483.2,497.9z M578.1,720c8.1,0,23.3,12.1,23.3,27.1
			c0,15-15.2,27.1-23.3,27.1H395.9c-8.1,0-22.9-12.1-22.9-27.1c0-15,14.8-27.1,22.9-27.1H578.1z M343.3,547
			c8-11.7,19.1-21,32.2-26.5c8.7-3.6,18.4-5.7,28.4-5.7c15.2,0,29.4,4.5,40.9,12.5c11.7,8,21,19.1,26.5,32.2
			c3.8,8.7,5.9,18.4,5.7,28.4c0,15.2-4.5,29.4-12.5,40.9c-8,11.7-19.1,21-32.2,26.5C423.7,659,414,661,404,661
			c-15.2,0-29.4-4.5-40.9-12.5c-11.7-8-21-19.1-26.5-32.2c-3.6-8.7-5.7-18.4-5.7-28.4C330.8,572.7,335.4,558.5,343.3,547z"/>
		<path d="M715,398.8l0.1-204.8c-0.1-17.7-14.4-32.1-32.1-32.1h-394c-17.7,0-32,14.4-32.1,32.1v200.4c40,20.6,119.9,55.1,226.3,56.6
			C592.2,452.5,674.5,418.8,715,398.8z M321.2,383.7v-152c0-5.9,4.4-10.7,9.8-10.7h309.8c5.4,0,9.7,4.8,9.7,10.6v152.1h0
			c0,5.9-4.4,10.6-9.7,10.7H330.9C325.6,394.4,321.2,389.7,321.2,383.7z"/>
		<path d="M350.1,364.9h271.3V250.7H350.1V364.9z M575.9,293.5c0-7.7,5.7-13.9,12.8-13.9c0.5,0,1.1,0,1.5,0.1
			c6.4,0.8,11.1,7.1,11.1,14.3v41.6c0,7.1-4.7,13.4-11.1,14.3c-7,1-13.3-4.5-14.2-12.1c-0.1-0.6-0.1-1.2-0.1-1.7V293.5z M529,293.5
			c0-7.7,5.7-13.9,12.8-13.9c0.5,0,1.1,0,1.5,0.1c6.4,0.8,11.1,7.1,11.1,14.3v41.6c0,7.1-4.7,13.4-11.1,14.3
			c-7,1-13.3-4.5-14.2-12.1c-0.1-0.6-0.1-1.2-0.1-1.7V293.5z M482.3,293.5c0-7.7,5.8-13.9,12.8-13.9c0.5,0,1.1,0,1.5,0.1
			c6.4,0.8,11.1,7.1,11.1,14.3v41.6c0,7.1-4.7,13.4-11.1,14.3c-7,1-13.3-4.5-14.2-12.1c-0.1-0.6-0.1-1.2-0.1-1.7V293.5z"/>
	</g>
</g>
</svg>
