<?xml version="1.0" encoding="utf-8"?>
<!-- Generator: Adobe Illustrator 24.2.3, SVG Export Plug-In . SVG Version: 6.00 Build 0)  -->
<svg version="1.1" id="Layer_1" xmlns="http://www.w3.org/2000/svg" xmlns:xlink="http://www.w3.org/1999/xlink" x="0px" y="0px"
	 viewBox="0 0 1024 1024" style="enable-background:new 0 0 1024 1024;" xml:space="preserve">
<g>
	<path d="M496.7,349.8c6.4-0.8,11.1-7.2,11.1-14.3v-41.7c0-7.2-4.7-13.4-11.1-14.3c-0.5-0.1-1-0.1-1.5-0.1c-7,0-12.8,6.2-12.8,13.9
		V336c0,0.5,0,1,0.1,1.7C483.3,345.4,489.7,350.9,496.7,349.8z"/>
	<path d="M543.3,349.8c6.4-0.8,11.1-7.2,11.1-14.3v-41.7c0-7.2-4.7-13.4-11.1-14.3c-0.5-0.1-1-0.1-1.5-0.1
		c-7.1,0-12.8,6.2-12.8,13.9V336c0,0.5,0,1,0.1,1.7C529.9,345.4,536.3,350.9,543.3,349.8z"/>
	<path d="M590.2,349.8c6.4-0.8,11.1-7.2,11.1-14.3v-41.7c0-7.2-4.7-13.4-11.1-14.3c-0.5-0.1-1-0.1-1.5-0.1
		c-7.1,0-12.8,6.2-12.8,13.9V336c0,0.5,0,1,0.1,1.7C576.9,345.4,583.3,350.9,590.2,349.8z"/>
	<path d="M650.7,231.5c0-5.9-4.4-10.6-9.8-10.6H331c-5.4,0-9.8,4.8-9.8,10.7v152c0,6,4.4,10.7,9.8,10.7h309.9
		c5.4-0.1,9.8-4.8,9.8-10.7l0,0V231.5z M617.3,360.1H354.4V255.5h262.9V360.1z"/>
	<path d="M376.5,747.2c0,14.3,11.4,26,19.5,26h182.1c8.1,0,19.6-11.6,19.6-26c0-14.3-11.5-26-19.6-26H395.9
		C387.8,721.3,376.5,732.7,376.5,747.2z"/>
	<path d="M780.1,689.1c-24.2,0-27.3-13-27.3-24.3c0-0.9,0-7.9,0-19.5c-0.6-372.5-0.4-501.1-0.2-539.1l-60.1-0.1
		c-2.5,4-5.8,7.3-9.6,10c-5.6,3.8-12,5.7-19.1,5.7c-3.1,0-5.7-0.4-7-0.6l-0.7-0.1c-4.8-0.8-17.6-3.1-24.3-14.6
		c-7-11.9-2.2-26.2,1.7-32.8c11.8-19.7,40-21.8,51.6-21.8h197c26,0.1,46.7,12.4,51.6,30.7c0,0.1,0.1,0.3,0.1,0.4
		c1,4.2,3.4,18.7-6.5,29.9c0,0,0,0-0.1,0.1c-6,6.7-14.8,10.2-25.6,10.2c-0.8,0-1.4,0-1.9,0c-3.3-0.1-12-0.3-20.1-6.5
		c-3.7-2.7-6.8-6.3-9-10.4l-61.7-0.1c0,0-0.6,559.6-0.6,559.7c-0.1,4.7-0.2,11.9-5.9,17.2C796.8,688.4,788,689.1,780.1,689.1z"/>
	<path d="M656.2,925.5h-62.1c-5.2,0-9.3,4.2-9.3,9.3v17.9c0,5.1,4.2,9.3,9.3,9.3h62.1c5.1,0,9.3-4.2,9.3-9.3v-17.9
		C665.6,929.7,661.4,925.5,656.2,925.5z"/>
	<path d="M377,925.5h-60.7c-5.5,0-10,4.5-10,10V952c0,5.5,4.5,10,10,10H377c5.5,0,10-4.5,10-10v-16.5C387,930,382.5,925.5,377,925.5
		z"/>
	<path d="M683.1,162h-394c-17.7,0-32,14.4-32.1,32.1v218l-0.1,29.6v262.4l0.1,169.8c-0.1,17.7,14.2,32.1,31.9,32.2h394.2
		c17.7,0,32.1-14.4,32.1-32.1l-0.1-432.3l0.1-29.6V194C715.1,176.4,700.7,162,683.1,162z M663,838.6c0,8.5-6.9,15.5-15.3,15.5H322.6
		c-8.4,0-15.3-7-15.3-15.5V473.4c41.1,19.1,112,31,176.1,31c63.9,0,140.3-10.8,179.7-30.4v364.6H663z M663,415.4
		c-32.3,17.3-116.1,31-179.5,31c-66.2,0-137.9-14-176.3-32.8V226.5c0-8.2,6.6-14.9,14.7-14.9h326.3c8.2,0,14.7,6.7,14.7,14.9
		L663,415.4L663,415.4z"/>
	<path d="M433.5,657.8c13.6-5.7,25.1-15.3,33.4-27.5c8.3-12,12.9-26.7,12.9-42.4c0.2-10.4-1.9-20.5-5.9-29.5
		c-5.7-13.6-15.3-25.1-27.5-33.4c-12-8.3-26.7-12.9-42.4-12.9c-10.4,0-20.5,2.2-29.5,5.9c-13.6,5.7-25.1,15.3-33.4,27.5
		c-8.3,12-12.9,26.7-12.9,42.4c0,10.4,2.2,20.5,5.9,29.5c5.7,13.6,15.3,25.1,27.5,33.4c12,8.3,26.7,12.9,42.4,12.9
		C414.4,663.7,424.4,661.6,433.5,657.8z M375,607.8c-3.9-5.7-6-12.3-6.1-19.7c0-4.8,0.9-9.6,2.8-13.7c2.6-6.3,7.2-11.7,12.8-15.6
		c5.7-3.9,12.3-6,19.7-6.1c4.8,0,9.6,0.9,13.7,2.8c6.3,2.6,11.7,7.2,15.6,12.8c3.9,5.7,6,12.3,6.1,19.7c0,4.8-0.9,9.4-2.8,13.7
		c-2.6,6.3-7.2,11.7-12.8,15.6c-5.7,3.9-12.3,6-19.7,6.1c-4.8,0-9.6-0.9-13.7-2.8C384.1,617.8,378.7,613.3,375,607.8z"/>
	<ellipse cx="404.2" cy="588" rx="11.8" ry="11.8"/>
</g>
</svg>
