<?xml version="1.0" encoding="utf-8"?>
<!-- Generator: Adobe Illustrator 24.2.3, SVG Export Plug-In . SVG Version: 6.00 Build 0)  -->
<svg version="1.1" id="IDCard" xmlns="http://www.w3.org/2000/svg" xmlns:xlink="http://www.w3.org/1999/xlink" x="0px" y="0px"
	 viewBox="0 0 20 20" style="enable-background:new 0 0 20 20;" xml:space="preserve">
<g>
	<path d="M5.3,11c1,0,1.9-0.8,1.9-1.9S6.3,7.3,5.3,7.3S3.5,8.1,3.5,9.1S4.3,11,5.3,11z M5.3,11.9c-1.2,0-3.7,0.6-3.7,1.9v0.9H9v-0.9
		C9,12.5,6.6,11.9,5.3,11.9z"/>
	<path d="M18.3,16v-0.3H1.6c-0.5,0-0.9-0.4-0.9-0.9V5.9c0-0.5,0.4-0.9,0.9-0.9h16.7c0.5,0,1,0.4,1,0.9v8.9c0,0.5-0.4,0.9-1,0.9V16
		v0.3c0.8,0,1.5-0.7,1.5-1.5V5.9c0-0.8-0.7-1.5-1.5-1.5H1.6C0.8,4.4,0.1,5,0.1,5.9v8.9c0,0.8,0.7,1.5,1.5,1.5h16.7V16z"/>
	<rect x="0.4" y="4.9" width="18.9" height="1.4"/>
	<rect x="10.1" y="12.7" width="7.4" height="1.2"/>
	<rect x="10.1" y="7.9" width="7.4" height="1.2"/>
	<rect x="10.1" y="10.3" width="3.3" height="1.2"/>
	<rect x="14.2" y="10.3" width="3.3" height="1.2"/>
</g>
</svg>
