<svg id="fill" xmlns="http://www.w3.org/2000/svg" viewBox="0 0 1150 1105"><path d="M1085.89,891c-.35-1.65-.67-3.31-1-5-.73-3.7-1.48-7.53-2.5-11.32A100.14,100.14,0,0,0,1059,832.32q-7.44-8.07-14.9-16.13l-1.7-1.84c-15.57-16.84-31.68-34.25-47.36-51.42l-.17-.17-.14-.2a3.53,3.53,0,0,1-.21-.32l-74.7-80.76v.12l-8.65-9.26c-1.91-2-3.64-3.85-5.3-5.54-21.28-21.64-45.52-32.61-72.07-32.61a108.68,108.68,0,0,0-32.67,5.29c-39.49,12.46-64.39,40.52-72,81.15-6,32.08,2.83,62.14,25.56,86.9C779.6,834.71,805,862.1,829.52,888.6l25.31,27.33,6.56,7.09h0l53.87,56.89.07,0,2.55,2c19.75,15.78,41,23.79,63.08,23.79a102.5,102.5,0,0,0,37.75-7.57c37.24-14.75,60.17-43.54,66.31-83.26l.07-.49.29-.79c.13-.35.26-.71.38-1.07l.24-.75V891.47Zm-226-77.83L847.67,800c-12.58-13.55-25.58-27.57-38.31-41.4-11.74-12.76-11.17-29.81,1.37-41.48,6.34-5.9,13.59-9,20.94-9,7.78,0,15.11,3.46,21.21,10,12.45,13.33,24.55,26.42,37.37,40.28l13.29,14.38Zm142.3,110.1a30.38,30.38,0,0,1-20.54,8.58c-7.62,0-14.62-3.15-20.25-9.11-12.23-12.93-24.54-26.31-36.44-39.25l-12.69-13.78,43.67-40.39,3.4,3.67,11.48,12.42,10,10.82.12.14c7.81,8.41,15.88,17.11,23.7,25.75C1015.91,894.5,1014.9,911.43,1002.19,923.23Z"/><path d="M992.92,368.47c-.17-33.15-12.89-65.93-35.81-92.3s-53.49-43.65-86.44-49.07a209.6,209.6,0,0,0-32.08-2.68c-16.67-.12-34.47-.18-54.41-.18-20.58,0-41.68.07-61.42.14h-4.64l-.36-4.62A169.85,169.85,0,0,0,587.28,69.07a172,172,0,0,0-38.19-4.33A169.87,169.87,0,0,0,382.34,203.32,143.15,143.15,0,0,0,380.22,220l-.32,4.67-4.68,0c-22.41-.08-44.72-.09-65.49-.09h-62.2c-38.12,0-71.71,12.34-99.85,36.68-29.16,25.23-46.23,57.47-50.74,95.85a20.66,20.66,0,0,1-.49,2.38c-.12.5-.23,1-.34,1.49l-.11.52v500l.1.49c.58,2.91,1.07,5.8,1.58,8.85a138.29,138.29,0,0,0,4.39,20C121.6,950.84,163.28,986.58,225.94,997a148,148,0,0,0,24.22,1.6q161.34.07,322.69.06,133.35,0,266.74,0a165.32,165.32,0,0,0,36.59-4l-66.06-69.76c-16.65-16.4-55.57-56.71-81.31-88.36-12.5-15.36-24.06-31-29.43-50.11-4.24-15-7.46-41.26-5.11-73.76.69-9.57,6.35-24.41,11.45-34.46,17-33.62,45-61.87,81.62-70.65,25.38-6.07,48.91-9.81,75.17-5.09,15.23,2.74,31,6.63,47.89,16,5.46,3,11.85,8.91,16.89,14.37l66,71.35c0-28.17,0-56.17,0-83.6C993.33,538,993.35,452.65,992.92,368.47Zm-538.59-150c6-39.58,40.21-79.8,94.14-80.11h.6c53.92,0,88.35,40.29,94.48,80.09l.89,5.77h-191ZM705.26,628.91a36.53,36.53,0,0,1-27.85,12.89c-13.13.09-27.62.14-45.6.14l-27.12,0h-.29l-27.12,0h-5.15v36.7q0,43.62,0,87.24c0,17.8-10.51,32.23-26.72,36.76A38.08,38.08,0,0,1,535.07,804h0c-20.4,0-36.48-16.65-36.62-37.92-.12-19.22-.1-38.75-.07-57.64q0-12.47,0-24.87V641.89h-5l-27.08,0h-1.71l-26.48,0c-17.7,0-32.1-.05-45.32-.18a36.44,36.44,0,0,1-33.15-50.92c6.2-14.41,17.93-22.16,33.94-22.42,4.51-.07,9.33-.11,15.17-.11l10.71,0h.7l11.37,0h66.86v-36c0-27.15,0-57.93,0-87.58,0-17.46,9.67-31.52,25.18-36.68a37.57,37.57,0,0,1,11.9-2c20.43,0,36.5,16.5,36.58,37.57.1,27.57.08,55.6.06,82.7v.14q0,17.32,0,34.64v7.17l60.59,0q21.51,0,43,0c19,.05,34.44,12.43,37.45,30.11A37.39,37.39,0,0,1,705.26,628.91Z"/></svg>