<?xml version="1.0" encoding="utf-8"?>
<!-- Generator: Adobe Illustrator 25.1.0, SVG Export Plug-In . SVG Version: 6.00 Build 0)  -->
<svg version="1.1" id="Layer_1" xmlns="http://www.w3.org/2000/svg" xmlns:xlink="http://www.w3.org/1999/xlink" x="0px" y="0px"
	 viewBox="0 0 236.1 256" style="enable-background:new 0 0 236.1 256;" xml:space="preserve">
<g>
	<path d="M213.5,39.9c-0.5-2.6-1.7-7.2-5-11.5c-6.8-8.8-16.9-9.2-18.7-9.3c-8.7-0.4-17.4-0.8-26.1-1.1v-1.9c0-4.7-0.8-8.5-2.2-10.8
		L160.2,3c-0.7-1.1-1.9-1.8-3.2-1.8H80.1c-1.2,0-2.5,0.7-3.2,1.8l-1.4,2.2c-1.4,2.2-2.3,6.1-2.3,10.8v2c-8.6,0.4-16.7,1.3-25.3,1.7
		c-2.5,0.2-10.8,2.1-15.2,5.2c-3.4,2.4-5.3,5.1-5.8,5.9c-4.7,6.9-4.4,14.7-4.2,17.3c0.1,59.1,0.1,118.3,0.2,177.4
		c0,2.1,0.1,5.2,0.8,8.8c0.7,3.2,2,9.3,6.7,14.5c4.8,5.2,10.4,6.7,12.4,7.1c48.3,0,96.6,0,144.9,0c0.7,0.1,1.7,0.1,2.9,0
		c4.9-0.4,8.4-2.9,10.1-4.1c0.5-0.3,2-1.5,3.7-3.3c6.3-6.7,8.3-14.8,8.5-18c0.1-2.2,0.3-4.4,0.4-6.6c0.1-60.4,0.1-120.7,0.2-181.1
		C213.7,42,213.6,40.9,213.5,39.9z M85.5,16.5H152v15.3H85.5V16.5z M125.5,92.1l50.9,53.2c0.7,0.9,0.6,2.4-0.3,3.1
		c-15.1,11.4-36.2,10.2-49.8-4c-13.6-14.2-14.8-36.3-3.8-52.1C123.2,91.3,124.6,91.2,125.5,92.1z M49.2,71.3
		c0-15.6,13-28.3,29.1-28.3c16.1,0,29.1,12.7,29.1,28.3v56.6c0,15.6-13,28.3-29.1,28.3c-16.1,0-29.1-12.7-29.1-28.3V71.3z
		 M56.6,178.1h121.8c5,0,9,3.6,9,8c0,4.4-4,8-9,8H56.6c-5,0-9-3.6-9-8C47.6,181.7,51.6,178.1,56.6,178.1z M178.7,225.2H56.3
		c-5,0-9-3.6-9-8c0-4.4,4-8,9-8h122.3c5,0,9,3.6,9,8C187.6,221.6,183.6,225.2,178.7,225.2z M184.7,139.4c-0.7,1-2.1,1.1-3,0.2
		l-50.9-53.2c-0.8-0.9-0.8-2.4,0.2-3.1c15.1-11.4,36.2-10.2,49.8,4C194.4,101.5,195.6,123.6,184.7,139.4z"/>
	<path d="M92.8,72.2c-0.1-8.5-6.6-15.3-14.6-15.3s-14.5,6.9-14.5,15.3v35.7h29.1V72.2z"/>
</g>
</svg>
