<svg id="Layer_1" data-name="Layer 1" xmlns="http://www.w3.org/2000/svg" viewBox="0 0 323.77 464.65"><path d="M227.33,263.56V256.2q0-105.69,0-211.38a39.23,39.23,0,0,1,1.21-11.27c3.35-11,13.79-17.18,25.47-15.65a22.69,22.69,0,0,1,19.38,21.66c.28,7.62.12,15.26.12,22.88q0,97,0,194v5.79l2.55,1.95c.86-1.8,1.31-4,2.64-5.36q46.23-46.53,92.63-92.89c7.63-7.63,17.18-9.47,26.4-5.35,8.9,4,14.89,13,13.38,22.74-.8,5.22-3.19,11.16-6.82,14.84q-68,69-136.75,137.28c-10.58,10.56-24.15,10.37-34.74-.22Q164.33,266.65,95.94,198C85.79,187.85,85.3,173.45,94.57,164c9.42-9.62,24-9.24,34.38,1.12q46.56,46.59,93,93.3C223.32,259.78,224.78,261.11,227.33,263.56Z" transform="translate(-87.96 -17.67)"/><path d="M251.83,427.16c1.16-1.85,2-4,3.53-5.5q57.34-57.72,114.77-115.34c7.26-7.31,15.58-10.57,25.62-7.35a23.11,23.11,0,0,1,10.61,36.8c-.81,1-1.71,1.88-2.61,2.78q-67.47,67.59-134.92,135.21c-7.27,7.3-15.61,10.67-25.58,7.18a27.34,27.34,0,0,1-9.89-6.4Q165,406.34,96.82,337.86c-9.7-9.72-10-23.75-.79-33.11s23.7-9.43,33.5.39q58,58.16,116,116.45c1.5,1.51,2.46,3.57,3.68,5.37Z" transform="translate(-87.96 -17.67)"/></svg>