<svg id="Layer_1" data-name="Layer 1" xmlns="http://www.w3.org/2000/svg" viewBox="0 0 245 233"><g id="fill"><path d="M96,82,77.76,91.12c13.48,6,27.08,12.07,40.53,18.1a13.06,13.06,0,0,0,5.39,1.24,12.8,12.8,0,0,0,5.35-1.23c18.1-8.13,36.53-16.33,54.36-24.26l10.53-4.69,6.63-2.92,20.69-9.62c0-1.18,0-2.36,0-3.54,0-4.26-1.92-7.19-5.9-9l-29.25-13Z"/><path d="M196,96s-56.81,26.35-62,29c-5.89,3-9.32,2-11,2-3.33,0-8-2.33-14-5,0,0-30.93-14.53-32-15,.06,0-25.06-12-25-12L26.22,83.47c0,31.34,0,60.31,0,88A8.93,8.93,0,0,0,32,180.23l18.52,8.19c21.93,9.68,44.6,19.7,66.77,29.82a14.89,14.89,0,0,0,6.25,1.46,17.45,17.45,0,0,0,9.23-3.13,5.89,5.89,0,0,0,.55-.38L217,172.65a7.46,7.46,0,0,0,4-6.65V113.89a11.51,11.51,0,0,0,.21-2.15q0-9.88,0-19.77c0-2.62,0-5.24,0-7.86C211.1,88.87,196,96,196,96Z"/><path d="M42.13,75.45v-.17l12.15,5.4,1.9.85h0l2,.91L165.94,33.31c-12-5.36-24.33-10.85-37.05-16.54a12.44,12.44,0,0,0-5.16-1.19,12,12,0,0,0-5,1.13C89.05,30,59.47,43.13,31.71,55.45A8.67,8.67,0,0,0,26.21,64v4.56Z"/></g></svg>