<svg id="Layer_1" data-name="Layer 1" xmlns="http://www.w3.org/2000/svg" viewBox="0 0 245 233"><path d="M123.52,219.7a14.89,14.89,0,0,1-6.25-1.46C95.1,208.12,72.43,198.1,50.5,188.42L32,180.23a8.93,8.93,0,0,1-5.78-8.72c0-33.38,0-68.55,0-107.5a8.67,8.67,0,0,1,5.5-8.56c27.76-12.32,57.34-25.45,87-38.74a12,12,0,0,1,5-1.13,12.44,12.44,0,0,1,5.16,1.19c30.6,13.68,58.88,26.27,86.46,38.48,4,1.76,5.91,4.69,5.9,9q0,13.89,0,27.77,0,9.89,0,19.77a11.51,11.51,0,0,1-.21,2.15V166a7.46,7.46,0,0,1-4,6.65L133.3,216.19a5.89,5.89,0,0,1-.55.38,17.45,17.45,0,0,1-9.23,3.13ZM42.21,96.75c0,22.75,0,46.28-.06,69.43,0,1.13,0,1.13,1,1.58,26.59,11.72,53.11,23.55,78,34.66a7,7,0,0,0,2.6.78,2.75,2.75,0,0,0,1.38-.4,7.65,7.65,0,0,1,2.11-.79L205,161.19V109a4.45,4.45,0,0,1,.25-1.51c0-8.2,0-16.44,0-24.87V75.39l-1,.43c-3.53,1.54-6.9,3-10.27,4.52L183.48,85c-17.83,7.93-36.27,16.13-54.37,24.27a12.32,12.32,0,0,1-10.73,0c-21.31-9.55-43-19.2-64-28.53L42.21,75.33Zm81-3a1.7,1.7,0,0,0,.37,0,3.33,3.33,0,0,0,1.22-.24c19.33-8.49,39-17.2,57.93-25.63l3.3-1.47c2.49-1.1,5-2.23,7.56-3.41l-1-.44c-9.19-4.1-17.87-8-26.66-11.79a5.57,5.57,0,0,0-1.07.37C145,60,125,68.83,107.9,76.44c-3.92,1.74-7.84,3.5-11.9,5.33l2,.92c8.24,3.67,16.75,7.47,25.16,11.09Zm-66-29.3c5.41,2.38,11,4.84,16.44,7.45a6.06,6.06,0,0,0,2.64.7,7.3,7.3,0,0,0,2.93-.76c13-5.9,26.36-11.81,39.23-17.52L132.73,48c4.26-1.89,8.51-3.79,12.93-5.77l.56-.25-2.55-1.13c-6.17-2.75-12.54-5.6-18.86-8.24a2.74,2.74,0,0,0-1-.16,3.12,3.12,0,0,0-1.15.19C106.33,39.75,89.78,47.1,73.78,54.21l-7.86,3.5c-3.94,1.75-7.87,3.51-12,5.35Z"/><path d="M218.25,64.19c0-3.08-1.27-4.94-4.11-6.2q-43.27-19.16-86.47-38.48a8.66,8.66,0,0,0-7.69-.06Q76.49,38.91,32.93,58.19A5.71,5.71,0,0,0,29.21,64q0,53.76,0,107.51a5.93,5.93,0,0,0,4,6c28.47,12.61,57,25.1,85.33,38,5.06,2.31,8.7,1,12.65-1.49a4.49,4.49,0,0,0,.49-.37L215.58,170a4.48,4.48,0,0,0,2.42-4V113.59a8.34,8.34,0,0,0,.21-1.86C218.24,95.89,218.2,80,218.25,64.19ZM166.8,47.93C178,52.78,189.07,57.77,200.9,63c-5,2.24-9.29,4.23-13.65,6.17Q156.65,82.82,126,96.32a5.63,5.63,0,0,1-4,.21c-10.63-4.57-21.18-9.32-31.76-14-.33-.15-.64-.34-1.45-.78,6.26-2.81,12.06-5.44,17.87-8q28.48-12.64,57-25.23C164.62,48,166,47.57,166.8,47.93ZM64.7,55Q93,42.37,121.44,29.87a6.43,6.43,0,0,1,4.53-.05c7.92,3.31,15.74,6.86,23.58,10.34,1.1.49,2.15,1.09,3.77,1.92-6.82,3-13.09,5.85-19.37,8.64-17.86,8-35.74,15.83-53.55,23.88a8.63,8.63,0,0,1-8.1,0c-7.64-3.67-15.45-7-23.19-10.44-.62-.27-1.21-.6-2.37-1.19C53.09,60.16,58.89,57.55,64.7,55ZM208,109v54l-79.76,41.87a4.87,4.87,0,0,0-1.65.55c-2.44,1.36-4.41.74-6.65-.26q-39-17.4-78-34.66c-2.15-.94-2.81-2-2.81-4.33q.14-46,.06-92c0-1,.1-2,.17-3.23,1.23.47,2.2.79,3.12,1.21q38.57,17.14,77.11,34.36a9.32,9.32,0,0,0,8.27,0Q160.3,92,192.78,77.6c5-2.22,10-4.39,15.46-6.8,0,12.92,0,25.21,0,37.46C208.09,108.36,208,108.58,208,109Z"/></svg>