<?xml version="1.0" encoding="utf-8"?>
<!-- Generator: Adobe Illustrator 24.2.3, SVG Export Plug-In . SVG Version: 6.00 Build 0)  -->
<svg version="1.1" id="Layer_1" xmlns="http://www.w3.org/2000/svg" xmlns:xlink="http://www.w3.org/1999/xlink" x="0px" y="0px"
	 viewBox="0 0 196 196" style="enable-background:new 0 0 196 196;" xml:space="preserve">
<style type="text/css">
	.st0{display:none;}
	.st1{display:inline;fill:#6DC3EE;}
	.st2{fill:#BDFFF5;}
	.st3{fill:#095656;}
	.st4{fill:#60EFD4;}
	.st5{fill:#11787A;}
	.st6{fill:#D9E2E1;}
	.st7{fill:#FFFFFF;}
	.st8{fill:#466575;}
	.st9{fill:#3A565E;}
	.st10{display:none;fill:#D6FCF6;}
</style>
<g id="BG" class="st0">
	<path class="st1" d="M-414-413.9V610c0,0,0,0.1,0.1,0.1H610c0,0,0.1,0,0.1-0.1V-413.9c0,0,0-0.1-0.1-0.1L-414-413.9
		C-414-414-414-414-414-413.9z"/>
</g>
<g id="Layer_1_1_">
	<g id="Layer_1-2">
		<g id="NewGroupe0">
			<g id="NewGroup0-0">
				<path class="st2" d="M68.6,42.4l0.1,25.2h51.9V42.5L68.6,42.4z M93.3,59.6v-7c0-1.3,1.2-2.4,2.6-2.3c0.8,0.1,1.5,0.7,1.8,1.4v0
					c0.1,0.3,0.2,0.6,0.2,0.9v6.8c0,1.2-0.8,2.2-2,2.3c-0.5,0.1-1.1-0.1-1.5-0.3C93.8,61.2,93.3,60.4,93.3,59.6z M102.2,59.6v-7
					c0-1.3,1.2-2.4,2.6-2.3c0.8,0.1,1.5,0.7,1.8,1.4v0c0.1,0.3,0.2,0.6,0.2,0.9v6.8c0,1.2-0.8,2.2-2,2.3c-0.5,0.1-1.1-0.1-1.5-0.3
					C102.6,61.2,102.2,60.4,102.2,59.6z M110.8,59.6v-7c0-1.3,1.2-2.4,2.6-2.3c0.8,0.1,1.5,0.7,1.8,1.4v0c0.1,0.3,0.2,0.6,0.2,0.9
					v6.8c0,1.2-0.8,2.2-2,2.3c-0.5,0.1-1.1-0.1-1.5-0.3C111.3,61.2,110.8,60.5,110.8,59.6z"/>
				<path class="st3" d="M136.7,31v44.4c-7.9,5.7-20.3,10.9-39.6,10.9s-36-4.9-44.5-10.9V75c8.9,5.5,24.7,9.8,42.8,9.8
					c19.3,0,31.7-5.3,39.6-10.9V29.5c0-1.6-0.6-3.1-1.5-4.2C135.3,26.4,136.6,28.6,136.7,31z"/>
				<path class="st4" d="M133.5,25.4c-0.8-0.4-1.8-0.6-2.7-0.6H60.2c-3.7,0-6.7,3-6.7,6.7v44c-0.3-0.2-0.6-0.3-0.9-0.5V31
					c0-3.7,3-6.7,6.7-6.7h70.6c1.3,0,2.5,0.4,3.5,1C133.5,25.3,133.5,25.3,133.5,25.4z"/>
				<path class="st5" d="M134.8,28.5c0-0.1,0-0.1,0-0.2c0-0.1,0-0.2,0-0.2c0-0.1,0-0.2-0.1-0.2c0,0,0,0,0,0c0-0.1,0-0.1,0-0.2
					c0,0,0-0.1,0-0.1c0-0.1,0-0.1-0.1-0.2c0,0,0-0.1,0-0.1c0-0.1,0-0.1-0.1-0.2c0,0,0-0.1,0-0.1c0,0,0-0.1-0.1-0.1
					c0,0,0-0.1-0.1-0.1c0,0,0-0.1,0-0.1c0,0,0-0.1-0.1-0.1c0-0.1-0.1-0.1-0.1-0.2c0,0,0,0,0,0c0-0.1-0.1-0.2-0.1-0.2c0,0,0,0,0,0
					c0-0.1-0.1-0.1-0.1-0.2c0,0,0,0,0,0c0-0.1-0.1-0.1-0.2-0.2c-0.1-0.1-0.1-0.1-0.2-0.2c-0.8-0.4-1.8-0.6-2.7-0.6H60.2
					c-3.7,0-6.7,3-6.7,6.7v44c0.8,0.5,1.8,1,2.7,1.4c0.2,0.1,0.3,0.2,0.5,0.2c0.1,0,0.2,0.1,0.3,0.1c0.1,0.1,0.2,0.1,0.3,0.2
					c0.3,0.1,0.6,0.3,0.9,0.4c0.2,0.1,0.3,0.2,0.5,0.2c0.3,0.1,0.5,0.2,0.8,0.3c0.2,0.1,0.3,0.1,0.5,0.2c0.2,0.1,0.4,0.2,0.7,0.3
					c0.2,0.1,0.3,0.1,0.5,0.2c0.1,0,0.2,0.1,0.3,0.1c0.2,0.1,0.3,0.1,0.5,0.2c0.2,0.1,0.5,0.2,0.7,0.3c0.2,0.1,0.3,0.1,0.5,0.2
					c0.3,0.1,0.7,0.2,1,0.3c0.2,0.1,0.4,0.1,0.5,0.2c0.8,0.2,1.5,0.5,2.3,0.7c0.1,0,0.3,0.1,0.4,0.1c1.9,0.5,3.9,1,6,1.5
					c0.2,0,0.5,0.1,0.7,0.1c1.2,0.2,2.5,0.5,3.8,0.7c0.2,0,0.5,0.1,0.7,0.1c0.2,0,0.3,0.1,0.5,0.1c0.2,0,0.5,0.1,0.7,0.1
					c0.2,0,0.4,0.1,0.6,0.1c0.7,0.1,1.3,0.2,2,0.3c0.3,0,0.5,0.1,0.8,0.1c0,0,0,0,0,0c0.2,0,0.4,0,0.7,0.1c0.5,0,0.9,0.1,1.4,0.1
					c0.2,0,0.4,0,0.6,0.1c0.2,0,0.5,0,0.7,0.1c0.4,0,0.7,0.1,1.1,0.1c0.2,0,0.4,0,0.6,0c0.2,0,0.5,0,0.7,0c0.2,0,0.4,0,0.7,0
					c0.3,0,0.5,0,0.8,0c0.3,0,0.6,0,0.8,0c0.2,0,0.3,0,0.5,0c0.2,0,0.3,0,0.5,0c0.5,0,1.1,0,1.6,0c0.5,0,1.1,0,1.6,0
					c19.3,0,31.7-5.3,39.6-10.9V29.5C134.9,29.1,134.9,28.8,134.8,28.5z M124.1,73.2H65.2c-0.2,0-0.5,0-0.7-0.1h0
					c-0.7-0.2-1.2-0.8-1.4-1.4c-0.1-0.2-0.1-0.5-0.1-0.7v-32c0-1.2,1-2.2,2.2-2.2h58.9c0.1,0,0.3,0,0.4,0c0.4,0.1,0.9,0.3,1.2,0.6
					c0.4,0.4,0.7,1,0.7,1.6l0,32C126.3,72.2,125.3,73.2,124.1,73.2z"/>
				<path class="st6" d="M83.7,114c0,4.4-3.8,8-8.3,7.5c-2-0.2-3.8-1.3-5-2.8c1.2,1.2,2.7,2,4.5,2.2c4.5,0.5,8.3-3,8.3-7.5
					c0-1.8-0.6-3.4-1.6-4.7C82.8,110,83.7,111.9,83.7,114z"/>
				<path class="st7" d="M83.1,113.4c0,4.4-3.8,8-8.3,7.5c-1.7-0.2-3.3-1-4.5-2.2c-0.9-1.1-1.5-2.4-1.6-3.8c-0.5-4.5,3-8.4,7.4-8.4
					c2.1,0,4,0.9,5.4,2.2C82.5,110,83.1,111.6,83.1,113.4z"/>
				<path class="st7" d="M136.6,138.2V84.3c-0.6,0.3-1.1,0.6-1.7,0.9c-11,6-20.4,9.3-37.9,9.3c-17.2,0-32.7-3.6-42.6-9.2
					c-0.6-0.4-1.3-0.7-1.8-1.1v53.9l0,35.8c0,1.8,0.7,3.4,1.8,4.7c1.2,1.3,2.9,2.1,4.9,2.1c0,0,0,0,0,0h70.6c3.7,0,6.7-3,6.7-6.7
					L136.6,138.2z M63,113c0.4-6.5,5.7-11.9,12.3-12.3c5.5-0.3,10.3,2.7,12.6,7.2c0.9,1.8,1.4,3.8,1.4,5.9c0,7.3-5.9,13.2-13.2,13.2
					c-1.6,0-3-0.3-4.4-0.8C66.3,124.3,62.6,119,63,113z M113.9,150.3H77.5c-1.6,0-2.9-1.3-2.9-3c0-0.7,0.2-1.3,0.6-1.8
					c0.5-0.7,1.4-1.2,2.3-1.2h36.4c1,0,1.8,0.5,2.3,1.2c0.4,0.5,0.6,1.1,0.6,1.8C116.9,148.9,115.6,150.3,113.9,150.3z"/>
				<path class="st6" d="M136.7,174c0,3.7-3,6.7-6.7,6.7H59.3c0,0,0,0,0,0c-1.9,0-3.7-0.8-4.9-2.1l0,0h76.4c2.2,0,4-1.8,4-4
					l0.1-89.4c0.6-0.3,1.1-0.6,1.7-0.9v53.9L136.7,174z"/>
				<path class="st6" d="M116.3,145.5h-41c0.5-0.7,1.4-1.2,2.3-1.2h36.4C114.9,144.4,115.7,144.8,116.3,145.5z"/>
				<path class="st6" d="M87.8,107.9c-2.3-4.5-7.1-7.6-12.6-7.2c-6.5,0.4-11.9,5.7-12.3,12.3c-0.4,6.1,3.3,11.3,8.7,13.2
					c-6.1-1.6-10.5-7.4-10.1-14.1c0.4-6.8,6-12.4,12.7-12.8C80.4,99,85.7,102.6,87.8,107.9z"/>
			</g>
		</g>
	</g>
	<path class="st8" d="M126,10.9c-0.5,1.2-1,1.9-2.6,2.8c-1.3,0.8-3.4,0.5-4.7,0.1c-0.8-0.2-1-0.4-1.5-0.7c-0.4-0.3-0.8-0.7-1.1-1.2
		c-1.3-2.2,0.3-4.8,0.4-4.9c1.9-3.2,6.8-3.6,9.2-3.6c11.8,0,27.3,0,41.3,0c1.7,0,3.2,0.3,4.5,0.8c1.5,0.9,2.6,2.1,3,3.5
		c0,0.2,0.7,2.8-0.9,4.6c-1.4,1.6-3.6,1.5-4.3,1.5c-0.4,0-0.9,0-1.6-0.2c0,0-0.1-0.1-0.1-0.1c-0.9-0.7-1.5-1.6-1.7-2.6l-16.2,0
		l-0.1,119.2c0,2-0.4,3.1-4.1,3.1c-0.7,0-2.5-0.7-3-0.8c-0.6-0.6-0.6-1.4-0.6-2.3c0-1.8-0.2-107.8,0-119.2L126,10.9z"/>
	<path class="st9" d="M165.9,10.9l-16.2,0l-0.1,119.4c0,2-0.3,3-4,3c-1.7,0-2.6-0.3-3.1-0.8c0.5,0.1,1,0.1,1.7,0.1
		c2.2,0,2.9-0.7,3.8-2.9l-0.3-119.6l16.8,0.2C164.5,10.5,165.8,10.7,165.9,10.9z"/>
	<path class="st9" d="M175,13c-1.4,1.6-3.6,1.5-4.3,1.5c-0.7,0-1.8-0.1-3-0.9c0.6,0.2,1.2,0.2,1.6,0.2c0.7,0,2.9,0.1,4.3-1.5
		c1.6-1.8,1-4.4,0.9-4.6c-0.4-1.4-1.4-2.7-3-3.5c2.3,0.9,3.9,2.4,4.4,4.2C175.9,8.6,176.6,11.2,175,13z"/>
	<path class="st9" d="M140.3,10.2c0,0.2,1.4,0.4,1.4,0.7l-15.8,0c-0.2,0.5-0.7,1.6-1.9,2.4c-1.7,1.1-3.5,0.8-4.1,0.7
		c-0.5-0.1-1.7-0.3-2.7-1c0.5,0.2,1,0.2,1.3,0.3c0.6,0.1,2.4,0.4,4.1-0.7c1.2-0.8,1.7-2,1.9-2.4L140.3,10.2z"/>
	<g>
		<g>
			<path class="st8" d="M114.1,185c-1.1,0-2,0.9-2,1.9v3.7c0,1.1,0.9,1.9,2,1.9h13.1c1.1,0,2-0.9,2-1.9v-3.7c0-1.1-0.9-1.9-2-1.9
				H114.1z"/>
		</g>
		<g>
			<path class="st8" d="M60.1,190.6c0,1.1,0.9,1.9,2,1.9h13.1c1.1,0,2-0.9,2-1.9v-3.7c0-1.1-0.9-1.9-2-1.9H62.1c-1.1,0-2,0.9-2,1.9
				V190.6z"/>
		</g>
	</g>
</g>
<path id="hilight" class="st10" d="M285.5,49.8C252.9,73.6,136.1,94.9,91.8,93.3c-54-2-150.9-14.5-204.5-44.6l-10.1-7.2l3.3,10.7
	v460c-5.9-6.2-9.4-14.6-9.4-23.9l-0.1-182.9V29.9c3,1.9,6.2,3.8,9.5,5.6c50.8,28.6,129.9,47,218,47c89.3,0,137.7-17.1,193.7-47.8"/>
<g>
	<path class="st9" d="M129.1,186.9v3.7c0,1.1-0.9,1.9-2,1.9h-13.1c-0.7,0-1.4-0.4-1.7-1c0.3,0.1,0.6,0.2,0.9,0.2h13.1
		c1.1,0,2-0.9,2-1.9v-3.7c0-0.4-0.1-0.7-0.3-1C128.7,185.5,129.1,186.1,129.1,186.9z"/>
</g>
<g>
	<path class="st9" d="M77.1,186.9v3.7c0,1.1-0.9,1.9-2,1.9H62.1c-0.7,0-1.4-0.4-1.7-1c0.3,0.1,0.6,0.2,0.9,0.2h13.1
		c1.1,0,2-0.9,2-1.9v-3.7c0-0.3-0.1-0.6-0.2-0.9C76.7,185.5,77.1,186.2,77.1,186.9z"/>
</g>
</svg>
