<?xml version="1.0" encoding="utf-8"?>
<!-- Generator: Adobe Illustrator 24.2.3, SVG Export Plug-In . SVG Version: 6.00 Build 0)  -->
<svg version="1.1" id="Layer_1" xmlns="http://www.w3.org/2000/svg" xmlns:xlink="http://www.w3.org/1999/xlink" x="0px" y="0px"
	 viewBox="0 0 1024 1024" style="enable-background:new 0 0 1024 1024;" xml:space="preserve">
<style type="text/css">
	.st0{display:none;}
	.st1{display:inline;fill:#6DC3EE;}
	.st2{fill:#BDFFF5;}
	.st3{fill:#11787A;}
	.st4{fill:#FFFFFF;}
	.st5{fill:#466575;}
</style>
<g id="BG" class="st0">
	<path class="st1" d="M0,0.1V1024c0,0,0,0.1,0.1,0.1H1024c0,0,0.1,0,0.1-0.1V0.1c0,0,0-0.1-0.1-0.1L0,0.1C0,0,0,0,0,0.1z"/>
</g>
<g id="Layer_1_1_">
	<g id="Layer_1-2">
		<g id="NewGroupe0">
			<g id="NewGroup0-0">
				<path class="st2" d="M367,229.5v129h266v-129H367z M516.8,317c0,6-4.3,11.3-10.2,12c-7.1,0.8-13.1-4.7-13.1-11.6v-35.8
					c0-6.9,6-12.4,13.1-11.6c5.9,0.7,10.2,6,10.2,12V317z M561.9,317c0,6-4.3,11.3-10.2,12c-7.1,0.8-13.1-4.7-13.1-11.6v-35.8
					c0-6.9,6-12.4,13.1-11.6c5.9,0.7,10.2,6,10.2,12V317z M606.2,317.1c0,6-4.3,11.3-10.2,12c-7.1,0.8-13.1-4.7-13.1-11.6v-35.8
					c0-6.9,6-12.4,13.1-11.6c5.9,0.7,10.2,6,10.2,12V317.1z"/>
				<path class="st3" d="M680.5,136.5h-361c-19.1,0-34.5,15.5-34.5,34.5v227c43.4,30.6,129,55.8,227.7,55.8s162.1-27,202.3-55.9V171
					C714.9,152,699.5,136.5,680.5,136.5z M662.1,375.3c0,6.3-5.1,11.4-11.4,11.5H349.4c-6.3,0-11.4-5.1-11.4-11.5V211.6
					c0-6.3,5.1-11.5,11.5-11.5h301.1c6.3,0,11.5,5.2,11.4,11.5L662.1,375.3L662.1,375.3z"/>
				<path class="st4" d="M405.5,557c-22.7,0-40.7,19.7-38.1,42.8c2,17.5,16.2,31.8,33.9,33.8c23.2,2.6,42.7-15.5,42.7-38.2
					C444,574.1,426.8,557,405.5,557C405.6,557,405.6,557,405.5,557z"/>
				<path class="st4" d="M714.8,719.5V443.9c-59.8,33.7-108.5,52.6-202.3,52.6S335.1,475.7,285,443.9v275.5l0.1,182.9
					c-0.1,19.1,15.2,34.6,34.3,34.7c0.1,0,0.2,0,0.2,0h360.9c19,0,34.5-15.5,34.5-34.5L714.8,719.5z M338.1,590.2
					c2-33.5,29.4-60.8,62.7-62.8c39.1-2.4,71.5,28.5,71.5,67.1c0,37.1-30.1,67.3-67.3,67.3C366.6,661.8,335.6,629.3,338.1,590.2z
					 M412.7,781c-8.3,0-15-6.7-15-15.1c0-8.3,6.7-15.1,15-15.1h186.1c8.3,0,15,6.7,15,15.1c0,8.3-6.7,15.1-15,15.1H412.7z"/>
			</g>
		</g>
	</g>
	<g>
		<g>
			<path class="st5" d="M599.5,958.5c-5.5,0-10,4.5-10,9.9v19.1c0,5.5,4.5,9.9,10,9.9h66.9c5.5,0,10-4.5,10-9.9v-19.1
				c0-5.5-4.5-9.9-10-9.9H599.5z"/>
		</g>
		<g>
			<path class="st5" d="M323.5,987.6c0,5.5,4.5,9.9,10,9.9h66.9c5.5,0,10-4.5,10-9.9v-19.1c0-5.5-4.5-9.9-10-9.9h-66.9
				c-5.5,0-10,4.5-10,9.9V987.6z"/>
		</g>
	</g>
</g>
<path class="st5" d="M919.9,61.8c-0.4,30.6-41.5,39-54,11.6c-0.7-1.6-1.3-3.2-1.7-4.9l-82.8-0.1l-0.6,610.5
	c-0.1,10.1-1.4,15.1-20.3,15.1c-17.6,0-19.3-6.5-19.3-16.1c0-9.3-1-551.5-0.1-609.5l-79.7-0.1C658.5,80.7,647.2,90,633.8,90
	c-15.6,0-28.3-12.7-28.3-28.3c0-15.4,12.2-27.4,29.3-30.1c10.4-1.5,19.9-1.6,23.8-1.6c60.6,0,139.7,0,211.3,0
	c7.8,0,20.6,1.2,25.1,2.8C909.9,37.3,919.4,47.4,919.9,61.8z"/>
</svg>
